<svg xmlns="http://www.w3.org/2000/svg" width="2048" height="2048" viewBox="0 0 2048 2048" version="1.1"><path d="" stroke="none" fill="#f4ecfc" fill-rule="evenodd"/><path d="M 1074.500 197.648 C 1072.300 197.820, 1064.200 198.444, 1056.500 199.036 C 1030.885 201.005, 1025.111 202.048, 1021.828 205.303 C 1020.921 206.202, 1014.474 207.001, 1001.500 207.822 C 991.050 208.484, 977.550 209.931, 971.500 211.039 C 965.450 212.147, 953.750 214.182, 945.500 215.562 C 937.250 216.941, 921.950 219.623, 911.500 221.521 C 901.050 223.419, 884.625 226.123, 875 227.529 C 865.375 228.935, 850.075 231.848, 841 234.002 C 831.925 236.156, 813.025 240.411, 799 243.459 C 761.314 251.646, 754.550 253.322, 719.500 263.145 C 649.522 282.759, 636.822 287.188, 596.189 306.150 C 563.414 321.446, 553.297 326.731, 539.453 335.784 C 507.675 356.567, 491.551 370.812, 481.481 387 C 478.231 392.225, 472.076 401.225, 467.805 407 C 457.827 420.489, 449.138 438.009, 445.984 451.001 C 443.845 459.808, 444.187 475.150, 446.732 484.500 C 450.456 498.188, 458.718 519.097, 461.584 522.088 L 464.250 524.870 456.247 536.185 C 430.450 572.655, 414.102 602.055, 414.021 612.124 C 413.930 623.414, 425.770 636.496, 448 649.668 C 472.009 663.896, 477.191 665.977, 496.472 669.141 C 515.902 672.329, 516.983 671.254, 505.369 660.289 L 497.731 653.077 505.931 657.267 C 513.516 661.142, 514.874 661.495, 524.051 661.978 C 533.793 662.491, 534.034 662.564, 537.505 666.036 C 540.779 669.312, 540.878 669.584, 538.859 669.736 C 537.661 669.826, 536.309 670.485, 535.855 671.200 C 534.685 673.045, 534.818 703.762, 536.043 714.500 C 536.608 719.450, 537.928 727.712, 538.977 732.859 C 541.940 747.397, 542.700 746.932, 544.261 729.623 C 545.133 719.960, 545.104 712.230, 544.134 696.322 C 543.439 684.927, 542.605 674.274, 542.279 672.647 C 541.900 670.750, 542.055 669.916, 542.713 670.322 C 543.276 670.671, 544.058 674.214, 544.451 678.197 C 545.447 688.307, 546.156 689.355, 551.584 688.743 C 558.218 687.996, 561 685.752, 561 681.148 C 561 677.112, 557.314 670.523, 552.556 666.053 C 551.150 664.732, 550 662.857, 550 661.887 C 550 659.917, 550.111 659.895, 572 657.464 C 601.011 654.242, 612.869 651.298, 643.500 639.711 C 676.681 627.160, 696.830 618.457, 723 605.372 C 767.674 583.037, 799.600 561.341, 829.345 533.105 C 835.606 527.162, 846.527 517.630, 853.614 511.924 C 865.563 502.304, 905.063 463.885, 908.679 458.367 C 913.153 451.539, 904.764 456.420, 893.166 467.392 C 881.650 478.287, 861.829 494.724, 848.955 504.056 C 837.285 512.515, 833.834 515.248, 816.593 529.682 C 798.751 544.620, 765.720 565.689, 740.005 578.535 C 706.211 595.416, 685.070 604.140, 644.500 617.943 C 605.474 631.220, 598.171 632.852, 566.731 635.318 L 550.962 636.555 551.503 627.527 C 551.801 622.562, 552.276 614.675, 552.557 610 C 554.234 582.168, 560.609 561.786, 579.767 523 C 592.824 496.565, 596.056 490.982, 609.007 472.500 C 613.246 466.450, 620.041 455.692, 624.107 448.594 C 630.783 436.939, 633.052 434.058, 647.500 418.883 C 681.271 383.414, 695.179 376.062, 723.067 378.936 C 734.911 380.157, 746.823 383.113, 748.115 385.152 C 748.736 386.132, 748.974 385.893, 748.985 384.273 C 749.006 381.244, 745.952 379.491, 736.500 377.103 C 698.950 367.617, 683.119 373.440, 644.500 410.943 C 626.207 428.708, 623.738 431.632, 615.054 445.815 C 611.581 451.488, 605.156 460.875, 600.776 466.674 C 588.253 483.256, 583.171 491.708, 569.315 519 C 548.325 560.345, 542.256 581.866, 540.411 621.500 C 539.988 630.595, 539.277 636.789, 538.606 637.235 C 537.998 637.639, 534.295 637.976, 530.377 637.985 L 523.254 638 516.816 632.722 C 501.008 619.765, 491.012 614.803, 479.500 614.201 C 469.425 613.673, 464.418 615.021, 458.204 619.933 L 453.284 623.822 445.642 618.775 C 441.439 615.999, 438 613.214, 438 612.586 C 438 610.673, 444.299 598.216, 452.235 584.433 C 468.690 555.856, 488.313 527.119, 507.841 503 C 521.987 485.528, 533.102 465.953, 533.354 458.066 L 533.500 453.500 529.288 453.194 C 526.972 453.026, 524.191 453.363, 523.108 453.942 C 522.025 454.522, 518.318 458.934, 514.869 463.748 C 506.565 475.337, 502.912 479.811, 487.530 497.226 L 474.560 511.911 469.339 497 C 459.573 469.108, 459.544 463.340, 469.078 445.087 C 472.556 438.428, 478.905 428.262, 483.187 422.495 C 487.469 416.728, 493.909 407.332, 497.497 401.615 C 501.644 395.009, 506.483 388.903, 510.776 384.861 C 519.045 377.073, 545.277 357.215, 557.500 349.491 C 569.857 341.682, 630.737 311.445, 647.119 304.980 C 677.618 292.944, 749.284 271.961, 795.468 261.544 C 814.049 257.353, 836.057 252.173, 844.375 250.033 C 852.694 247.892, 867.375 244.978, 877 243.558 C 893.289 241.153, 918.695 236.512, 967.500 227.023 C 990.081 222.633, 993.055 222.290, 1019.500 221.016 C 1031.471 220.439, 1046.269 218.912, 1059.500 216.888 C 1077.708 214.102, 1083.093 213.674, 1100 213.668 C 1121.678 213.660, 1143.607 215.391, 1148.680 217.511 C 1150.505 218.273, 1153.462 219.968, 1155.250 221.277 C 1157.037 222.586, 1163.296 226.040, 1169.158 228.953 C 1189.781 239.203, 1219.620 264.127, 1237.487 286.027 C 1243.532 293.437, 1253.014 304.225, 1258.556 310 C 1284.386 336.913, 1300.211 356.524, 1306.565 369.496 C 1313.193 383.026, 1316.558 402.788, 1315.411 421.454 C 1314.804 431.346, 1314.513 432.874, 1313.787 430 C 1312.328 424.223, 1303.010 393.764, 1301.551 390 C 1297.227 378.849, 1295.320 374.903, 1291.327 368.843 C 1288.890 365.143, 1285.268 360.687, 1283.280 358.941 C 1279.713 355.809, 1279.552 355.773, 1271.195 356.211 L 1262.726 356.656 1258.022 361.587 C 1253.913 365.894, 1253.155 367.381, 1252.032 373.329 C 1251.326 377.075, 1251.008 382.020, 1251.327 384.320 C 1252.235 390.876, 1256.961 406.346, 1258.547 407.955 C 1259.800 409.226, 1260.172 409.163, 1261.502 407.455 C 1265.159 402.757, 1270.036 392.996, 1271.161 388.123 L 1272.383 382.828 1275.075 388.164 C 1278.528 395.006, 1289.483 431.605, 1295.980 458 C 1301.722 481.328, 1304.493 500.511, 1306.040 527.654 C 1307.159 547.293, 1307.111 548.582, 1304 582 C 1302.950 593.275, 1301.619 611.950, 1301.042 623.500 C 1300.465 635.050, 1299.365 648.550, 1298.598 653.500 C 1293.698 685.096, 1289.507 703.025, 1283.277 719.038 L 1280.682 725.707 1269.975 714.841 L 1259.269 703.974 1260.609 698.237 C 1263.359 686.470, 1266.115 659.875, 1266.107 645.192 C 1266.093 618.442, 1257.617 583.126, 1245.348 558.698 C 1231.263 530.653, 1200.811 491.295, 1181 475.531 C 1153.048 453.288, 1110.206 433.075, 1077.434 426.666 C 1047.050 420.724, 1033.176 419.568, 1001.500 420.335 C 972.944 421.027, 966.666 421.853, 931.500 429.546 C 902.681 435.849, 896.504 437.705, 885.500 443.364 C 874.476 449.034, 856.460 467, 861.799 467 C 862.239 467, 869.777 463.330, 878.549 458.844 C 899.169 448.300, 904.943 446.262, 931.827 440.039 C 962.973 432.829, 966.814 432.224, 990.310 430.838 C 1038.344 428.003, 1081.593 435.170, 1119.752 452.288 C 1160.257 470.459, 1183.832 488.321, 1205.820 517.500 C 1233.505 554.239, 1243.793 575.491, 1251.342 611.539 C 1255.105 629.513, 1256.309 641.923, 1255.555 655 C 1254.888 666.574, 1252.410 690.249, 1251.373 694.963 C 1250.105 700.720, 1250.468 700.499, 1242.261 700.513 C 1230.405 700.532, 1220.746 703.772, 1213.453 710.176 C 1211.415 711.965, 1207.954 717.067, 1205.487 721.920 C 1203.087 726.639, 1198.467 734.008, 1195.220 738.295 C 1188.944 746.582, 1181.379 762.615, 1176.487 778 C 1175.001 782.675, 1172.899 788.046, 1171.816 789.936 C 1169.273 794.375, 1170.004 798.290, 1174.330 803.402 C 1177.615 807.284, 1177.717 807.321, 1193.854 810.561 C 1202.775 812.352, 1210.714 814.348, 1211.495 814.996 C 1212.443 815.783, 1212.713 817.186, 1212.306 819.221 C 1211.837 821.564, 1212.020 822.161, 1213.098 821.805 C 1213.869 821.550, 1214.967 820.414, 1215.538 819.280 C 1216.457 817.454, 1216.795 817.377, 1218.479 818.608 C 1223.131 822.010, 1226.577 819.368, 1227.644 811.581 C 1228.184 807.641, 1227.983 807.035, 1225.622 805.488 C 1224.180 804.543, 1223 803.059, 1223 802.190 C 1223 801.321, 1227.021 792.260, 1231.934 782.055 C 1237.972 769.517, 1241.720 760.257, 1243.492 753.500 C 1246.649 741.467, 1252.240 725.004, 1253.170 725.002 C 1253.539 725.001, 1256.834 727.556, 1260.493 730.680 C 1274.199 742.380, 1286.829 761.851, 1290.537 777 C 1292.770 786.119, 1293.534 809.458, 1292.050 823.192 C 1289.649 845.409, 1281.860 881.242, 1274.813 902.488 C 1266.448 927.707, 1255.002 943.990, 1233.956 960.611 C 1209.319 980.067, 1182.098 988.747, 1157 985.149 C 1150.438 984.208, 1131.278 979.353, 1130.057 978.321 C 1129.813 978.115, 1131.350 976.271, 1133.472 974.223 C 1137.608 970.232, 1142.970 959.618, 1144.932 951.536 C 1146.007 947.104, 1145.947 946.435, 1144.371 945.282 C 1142.308 943.774, 1138.916 944.567, 1137.532 946.881 C 1135.179 950.816, 1129.623 964.079, 1127.743 970.250 C 1125.403 977.929, 1125.484 977.896, 1116 975 C 1108.313 972.653, 1105 972.472, 1105 974.398 C 1105 977.103, 1124.478 994.470, 1131.154 997.719 C 1151.223 1007.485, 1180.861 1008.099, 1205.500 999.260 C 1228.813 990.896, 1254.688 971.223, 1270.945 949.500 C 1276.818 941.653, 1284.543 926.339, 1288.385 914.926 C 1291.860 904.605, 1298.424 879.141, 1301.467 864.182 C 1313.407 805.467, 1310.967 772.077, 1292.578 742.573 L 1288.016 735.254 1293.905 722.877 C 1300.620 708.764, 1305.194 695.163, 1311.476 670.629 C 1316.922 649.359, 1318.432 640.644, 1320.943 616 C 1322.036 605.275, 1324.098 588.850, 1325.527 579.500 C 1327.266 568.120, 1328.305 556.385, 1328.669 544 C 1329.134 528.188, 1329.628 523.829, 1332.066 514 C 1336.453 496.315, 1337.028 489.618, 1337.992 445.022 C 1338.832 406.136, 1338.767 402.833, 1336.945 392.180 C 1333.566 372.413, 1330.084 362.752, 1321.624 349.667 C 1312.711 335.882, 1301.197 322.316, 1279.851 300.453 C 1268.600 288.929, 1256.561 276.125, 1253.098 272 C 1238.439 254.542, 1216.641 234.690, 1195.653 219.685 C 1185.900 212.713, 1169.139 204.321, 1162.500 203.087 C 1159.750 202.575, 1152.550 201.865, 1146.500 201.509 C 1140.450 201.152, 1127.799 199.992, 1118.387 198.930 C 1103.191 197.216, 1086.348 196.724, 1074.500 197.648 M 947.500 441.879 C 935.550 447.509, 917.775 463.164, 906.891 477.645 C 897.755 489.800, 894.792 495.045, 896.143 496.672 C 897.350 498.127, 897.041 498.303, 913.812 486.661 C 920.033 482.342, 929.094 475.364, 933.947 471.154 C 938.800 466.944, 944.808 462.037, 947.299 460.250 L 951.828 457 955.296 463.250 C 960.357 472.370, 963.363 478.465, 972.474 498.083 C 976.966 507.754, 984.628 522.829, 989.502 531.583 C 994.375 540.338, 1006.625 562.986, 1016.724 581.912 C 1039.888 625.325, 1043.566 631.050, 1064.117 655.688 C 1068.332 660.741, 1075.282 669.679, 1079.560 675.551 C 1086.262 684.747, 1087.178 686.486, 1086.170 688.099 C 1084.401 690.932, 1084.732 692.220, 1087.039 691.488 C 1088.854 690.912, 1089.004 691.151, 1088.401 693.670 C 1086.898 699.952, 1082.759 709.595, 1074.506 726.046 C 1069.731 735.563, 1062.678 751.033, 1058.832 760.425 C 1050.380 781.060, 1046.938 787.698, 1042.419 792.079 C 1039.301 795.101, 1038.836 795.265, 1037.417 793.846 C 1034.992 791.421, 1034.116 785.599, 1035.067 778.226 C 1035.544 774.527, 1035.949 765.946, 1035.967 759.157 C 1036.012 742.312, 1033.671 731.700, 1024.056 705.153 C 1019.712 693.160, 1011.578 668.562, 1005.982 650.491 C 994.997 615.021, 988.753 597.235, 983.690 587 C 980.646 580.846, 980.271 580.483, 976.640 580.184 C 972.809 579.868, 969.001 581.972, 968.999 584.405 C 968.998 586.193, 963.250 597.801, 960.644 601.279 C 955.434 608.231, 943.892 628.016, 944.485 628.976 C 945.370 630.407, 949.638 628.023, 957.194 621.878 C 964.797 615.694, 967.006 613.280, 972.082 605.611 L 975.980 599.722 977.456 603.111 C 978.267 604.975, 982.351 617.075, 986.530 630 C 1000.553 673.366, 1010.634 703.390, 1016.246 718.500 C 1025.150 742.475, 1026.132 751.703, 1023.151 783.423 L 1022.500 790.347 1021.109 786.423 C 1019.467 781.791, 1018.682 781.147, 1015.435 781.768 C 1013.540 782.130, 1013 782.859, 1013 785.058 C 1013 786.611, 1013.400 788.129, 1013.889 788.432 C 1014.378 788.734, 1015.084 790.223, 1015.456 791.741 C 1015.829 793.258, 1022.476 807.550, 1030.227 823.500 C 1046.679 857.356, 1053.978 873.666, 1053.991 876.605 C 1053.997 878.125, 1053.097 878.971, 1050.750 879.647 L 1047.500 880.583 1047.708 887.675 C 1047.872 893.281, 1047.558 895.086, 1046.208 896.294 C 1044.013 898.256, 1035.528 900.673, 1026 902.049 C 1018.565 903.123, 966.013 903.445, 952.500 902.500 C 932.703 901.114, 896.141 899.698, 877.762 899.605 C 858.463 899.507, 857.063 899.378, 857.582 897.743 C 858.294 895.497, 856.804 888.130, 851.970 870 C 849.844 862.025, 846.930 849.200, 845.495 841.500 C 844.060 833.800, 842.237 825.281, 841.443 822.568 C 840.649 819.856, 840 817.269, 840 816.818 C 840 816.368, 842.041 816, 844.535 816 C 847.029 816, 852.635 814.822, 856.992 813.382 L 864.915 810.763 879.707 812.459 C 887.843 813.392, 896.876 814.410, 899.780 814.721 L 905.059 815.286 902.228 817.007 C 895.454 821.127, 872.005 849.602, 872.002 853.713 C 872.001 854.929, 873.957 858.304, 876.349 861.213 C 879.992 865.641, 881.170 866.457, 883.599 866.233 C 888.855 865.749, 907.422 868.106, 910.735 869.678 C 912.522 870.526, 914.619 870.977, 915.395 870.679 C 916.171 870.381, 917.637 870.767, 918.653 871.537 C 921.559 873.739, 923.413 873.257, 925.534 869.750 C 928.941 864.118, 928.165 853.348, 923.047 835.187 C 920.673 826.764, 918.063 819.205, 917.246 818.389 C 916.430 817.573, 915.986 816.681, 916.260 816.407 C 916.534 816.133, 923.600 816.413, 931.961 817.030 C 940.323 817.646, 947.802 817.906, 948.582 817.607 C 952.320 816.173, 948.912 814.176, 934 809.064 C 923.390 805.427, 925.238 805.355, 946.973 808.553 C 962.748 810.875, 964.465 810.964, 965.894 809.535 C 968.188 807.240, 966.175 804.681, 961.398 803.821 C 931.622 798.461, 921.979 797.110, 900.036 795.227 L 891.573 794.500 902.536 787.855 C 916.848 779.180, 931.096 772.133, 943.500 767.592 C 958.394 762.140, 965.782 758.967, 966.997 757.503 C 968.996 755.095, 969.900 750.243, 968.660 748.575 C 967.540 747.067, 963.138 746.429, 941 744.569 C 937.425 744.268, 929.775 743.577, 924 743.033 C 918.225 742.488, 902.250 741.144, 888.500 740.044 C 874.750 738.945, 857.650 737.500, 850.500 736.832 C 831.421 735.050, 830.559 735.086, 830.189 737.682 C 829.995 739.050, 830.611 740.257, 831.841 740.915 C 835.085 742.651, 850.910 744.776, 881 747.517 C 896.675 748.944, 918.030 750.987, 928.457 752.056 C 938.883 753.125, 947.883 754.024, 948.457 754.053 C 949.030 754.083, 944.100 756.029, 937.500 758.378 C 920.721 764.350, 907.379 770.961, 886.476 783.664 L 868.451 794.617 850.476 795.858 C 834.768 796.942, 816.886 799.716, 813.963 801.523 C 811.088 803.299, 815.816 812, 819.656 812 C 822.794 812, 831 815.503, 831 816.842 C 831 817.605, 831.619 817.976, 832.396 817.678 C 834.115 817.018, 835.804 823.415, 839.446 844.378 C 840.867 852.560, 843.168 863.747, 844.560 869.237 C 845.952 874.727, 847.963 883.461, 849.030 888.647 C 850.097 893.833, 851.443 898.959, 852.020 900.038 C 853.627 903.040, 851.978 902.385, 847.897 898.399 C 845.047 895.617, 843.712 894.957, 842.020 895.494 C 839.086 896.425, 839.913 899.739, 844.893 907 C 854.034 920.327, 861.508 937.204, 866.069 954.818 C 870.294 971.133, 870.644 970.045, 859.750 974.487 C 845.128 980.449, 829.941 988.654, 810.331 1001.187 L 792.163 1012.799 783.579 1002.921 C 773.629 991.471, 766.906 985.829, 758.500 981.876 C 753.168 979.369, 748.551 978.347, 729.351 975.426 C 727.620 975.163, 725.059 974.047, 723.660 972.947 L 721.117 970.947 728.309 960.647 C 732.264 954.982, 737.750 946.500, 740.500 941.798 C 745.302 933.588, 745.661 933.230, 749.564 932.768 C 757.721 931.804, 763.155 927.028, 760.897 922.808 C 760.119 921.354, 759.168 921.109, 756.162 921.590 L 752.401 922.191 752.281 915.846 C 752.214 912.356, 751.774 902.588, 751.302 894.139 C 750.501 879.793, 750.291 878.654, 748.120 876.896 C 745.790 875.009, 742.800 875.098, 738.750 877.174 C 736.486 878.334, 736.537 879.623, 738.928 881.671 C 740.719 883.204, 740.817 884.362, 740.310 897.911 C 739.869 909.664, 739.362 913.396, 737.702 917.109 L 735.641 921.718 725.432 922.343 C 719.817 922.686, 706.736 924.585, 696.362 926.562 C 655.858 934.282, 655.182 934.374, 639.500 934.369 C 624.374 934.365, 610.291 933.215, 591 930.410 C 576.045 928.236, 577.306 929.168, 576.510 919.715 C 574.719 898.466, 568.005 866.915, 560.580 844.850 L 556.323 832.200 560.411 834.350 C 564.239 836.363, 566.574 836.554, 597 837.340 C 619.640 837.924, 634.354 837.827, 645.500 837.020 C 662.229 835.808, 684.464 833.424, 688.507 832.409 C 691.226 831.727, 693.683 826.283, 692.022 824.622 C 691.389 823.989, 677.956 823.595, 655.759 823.557 C 630.953 823.515, 617.707 823.082, 611.080 822.096 L 601.660 820.695 610.580 817.528 C 615.486 815.786, 625.350 811.867, 632.500 808.820 C 639.650 805.772, 653.320 800.485, 662.878 797.070 C 683.020 789.874, 690.204 786.823, 694.449 783.662 C 696.127 782.413, 699.405 780.837, 701.734 780.160 C 706.098 778.891, 708 776.715, 708 772.990 C 708 771.100, 707.502 770.877, 703.750 771.092 C 701.413 771.225, 698.500 771.008, 697.277 770.608 C 695.829 770.135, 693.390 770.629, 690.277 772.024 C 686.244 773.832, 682.540 774.302, 666.500 775.040 C 640.390 776.241, 606.729 776.202, 593.415 774.955 C 587.319 774.384, 577.644 772.749, 571.915 771.322 C 559.018 768.110, 551.983 767.799, 549.200 770.319 C 546.475 772.785, 545.951 779.595, 547.725 789.461 C 549.431 798.943, 551.114 802.800, 552.684 800.824 C 554.205 798.909, 556.880 790.248, 557.608 784.883 L 558.235 780.267 562.522 781.557 C 574.687 785.218, 588.187 786.455, 614.726 786.343 C 629.151 786.282, 642.651 785.939, 644.726 785.582 C 646.802 785.224, 637.925 788.558, 625 792.989 C 601.432 801.070, 588.545 804.323, 575.500 805.483 C 562.178 806.669, 554.994 808.025, 553.001 809.731 C 550.529 811.848, 550.517 812.630, 552.889 817.283 L 554.778 820.988 550.889 820.366 C 548.070 819.916, 547 820.097, 547 821.026 C 547 821.730, 549.239 830.450, 551.976 840.403 C 558.159 862.892, 562.183 882.923, 565.452 907.500 C 567.238 920.930, 567.652 926.610, 566.864 926.875 C 564.309 927.735, 562.101 931.149, 560.544 936.650 C 559.633 939.867, 556.934 947.675, 554.547 954 C 548.506 970.004, 544.874 982.274, 545.878 983.278 C 547.286 984.686, 556.854 973.012, 560.891 964.963 C 562.970 960.817, 565.714 953.203, 566.990 948.042 L 569.308 938.657 571.404 941.089 C 574.808 945.039, 589.581 947.929, 617.316 950.071 C 642.874 952.044, 654.216 950.712, 694.346 941.026 C 713.936 936.297, 728.828 933.494, 729.704 934.370 C 730.249 934.916, 726.565 942.294, 718.282 957.245 C 712.712 967.301, 711.867 969.475, 712.407 972.357 C 712.867 974.807, 712.602 976.086, 711.433 977.055 C 709.118 978.977, 710.308 983.412, 714.235 987.500 C 717.456 990.853, 717.564 990.884, 722.251 989.781 C 725.766 988.953, 730.032 988.959, 738.642 989.803 C 755.182 991.423, 760.279 993.977, 773.633 1007.330 C 779.277 1012.974, 784.357 1018.809, 784.922 1020.296 C 785.488 1021.783, 786.561 1023, 787.306 1023 C 788.618 1023, 789.528 1024.452, 791.854 1030.250 C 792.461 1031.763, 793.362 1033, 793.856 1033 C 795.350 1033, 797.217 1030.173, 797.887 1026.898 C 798.386 1024.460, 799.303 1023.538, 802.234 1022.530 C 804.277 1021.828, 813.273 1016.386, 822.225 1010.438 C 840.266 998.450, 849.282 993.428, 865.262 986.464 C 872.506 983.308, 876.662 980.879, 877.975 979.035 C 880.664 975.259, 882.170 965.282, 880.547 962 C 879.866 960.625, 877.391 954.211, 875.045 947.748 C 872.699 941.284, 868.396 931.159, 865.483 925.248 C 862.569 919.336, 860.411 914.275, 860.685 914 C 860.960 913.725, 877.456 913.725, 897.343 914 C 959.946 914.866, 1008.759 914.539, 1018.156 913.192 C 1037.866 910.366, 1050.633 905.401, 1053.448 899.468 C 1054.302 897.669, 1055 895.548, 1055 894.754 C 1055 893.960, 1055.946 892.454, 1057.102 891.407 C 1059.941 888.838, 1061.623 885.344, 1062.468 880.263 C 1063.549 873.752, 1060.490 866.062, 1043.028 831.397 C 1029.783 805.103, 1027.927 800.890, 1031.025 804.147 C 1035.305 808.646, 1038.864 809.130, 1044.926 806.038 C 1052.680 802.082, 1058.415 792.023, 1068.322 765 C 1071.851 755.375, 1077.561 741.200, 1081.010 733.500 C 1084.460 725.800, 1089.002 714.587, 1091.103 708.582 C 1093.205 702.578, 1095.324 697.403, 1095.812 697.082 C 1096.301 696.762, 1097.203 695.545, 1097.817 694.378 C 1100.105 690.028, 1089.205 671.449, 1067.177 642.154 C 1052.546 622.696, 1048.246 615.475, 1032.301 583.592 C 1025.399 569.791, 1013.426 546.800, 1005.694 532.500 C 997.962 518.200, 988.635 499.975, 984.966 492 C 977.491 475.749, 971.566 464.017, 963.756 450 C 958.758 441.031, 958.268 440.486, 954.981 440.247 C 953.067 440.108, 949.700 440.842, 947.500 441.879 M 1095.930 598.250 C 1093.594 601.969, 1093.691 604.348, 1096.850 621 C 1100.494 640.207, 1101.315 654.426, 1100.660 687 C 1099.800 729.810, 1097.134 761.979, 1091.966 791.880 C 1088.973 809.202, 1089.416 812.424, 1096 821.214 C 1100.418 827.113, 1104.036 828.862, 1107.343 826.695 C 1111.905 823.705, 1124.415 808.257, 1139.082 787.500 C 1151.719 769.615, 1156.603 761.613, 1168.989 738.500 C 1182.926 712.492, 1192.626 695.927, 1197.709 689.456 C 1202.473 683.391, 1204.985 674.209, 1202.931 670.372 C 1201.851 668.353, 1200.906 668.001, 1196.581 668.004 C 1190.028 668.009, 1186.568 670.146, 1179.818 678.359 C 1173.411 686.157, 1166.127 697.763, 1150.547 725 C 1144.098 736.275, 1135.887 749.978, 1132.301 755.452 C 1124.786 766.922, 1115.815 779.148, 1115.294 778.628 C 1115.099 778.432, 1115.612 771.573, 1116.434 763.386 C 1120.399 723.944, 1121.748 662.178, 1119.129 640 C 1115.956 613.127, 1111.783 600.461, 1104.955 596.977 C 1099.667 594.279, 1098.302 594.472, 1095.930 598.250 M 466.500 630.857 C 481.554 640.004, 485.735 642.688, 488.409 644.920 L 491.500 647.500 498.700 643.931 L 505.899 640.361 500.700 637.211 C 490.208 630.855, 483.993 628.998, 473.270 629.017 L 463.500 629.034 466.500 630.857 M 547.838 679.905 L 547.465 683.811 550.334 682.327 L 553.202 680.844 550.927 678.422 C 549.675 677.090, 548.552 676, 548.431 676 C 548.309 676, 548.042 677.757, 547.838 679.905 M 1234.104 723.013 C 1227.228 725.486, 1225.402 727.177, 1221.961 734.258 C 1220.423 737.426, 1216.989 742.962, 1214.332 746.561 C 1211.674 750.161, 1208.337 754.770, 1206.915 756.803 C 1204.254 760.608, 1195.632 778.563, 1192.128 787.595 L 1190.152 792.689 1200.793 794.922 C 1206.646 796.150, 1212.855 797.748, 1214.590 798.473 L 1217.746 799.792 1218.946 795.785 C 1219.606 793.582, 1222.837 785.906, 1226.124 778.729 C 1232.060 765.770, 1235.678 755.007, 1237.964 743.500 C 1239.042 738.077, 1242.357 725.839, 1243.687 722.372 C 1244.439 720.414, 1240.619 720.670, 1234.104 723.013 M 1230.547 827.628 C 1231.456 832.411, 1210.530 874.475, 1198.832 891.378 C 1193.699 898.795, 1187.250 908.971, 1184.500 913.991 C 1177.288 927.158, 1177.266 927.170, 1170.256 922.299 C 1162.472 916.889, 1155.799 914.516, 1148.500 914.561 C 1140.164 914.612, 1133.795 916.628, 1129.002 920.730 C 1124.065 924.957, 1119.713 933.008, 1120.554 936.359 C 1121.328 939.443, 1126.685 945.271, 1128.265 944.747 C 1128.944 944.522, 1131.306 941.977, 1133.514 939.091 C 1138.510 932.560, 1139.785 931.847, 1146.570 931.786 C 1153.058 931.727, 1161.712 935.599, 1169.417 942.007 C 1172.348 944.444, 1175.146 945.975, 1176.347 945.798 C 1178.703 945.449, 1185.471 934.286, 1193.692 917.187 C 1196.684 910.964, 1202.218 900.794, 1205.990 894.585 C 1213.695 881.906, 1213.137 883.103, 1224.599 854.639 C 1233.002 833.773, 1234.313 828.334, 1231.501 826.001 C 1230.213 824.932, 1230.078 825.161, 1230.547 827.628 M 722.106 844.801 C 721.421 846.081, 721.669 847.779, 722.964 850.670 L 724.785 854.737 715.967 856.900 C 711.118 858.089, 703.404 859.181, 698.825 859.327 C 689.662 859.618, 686.281 860.910, 681.271 866.034 C 677.224 870.174, 676.564 873.174, 678.453 878.855 C 681.573 888.238, 694.077 897.351, 697.468 892.713 C 698.247 891.647, 699.077 891.436, 700.058 892.057 C 700.851 892.559, 703.457 892.976, 705.849 892.985 C 709.427 892.997, 710.707 892.454, 713.074 889.921 C 714.655 888.228, 716.375 885.300, 716.896 883.415 C 718.268 878.446, 722.815 874, 726.524 874 C 728.191 874, 730.471 873.359, 731.590 872.575 C 732.916 871.646, 734.125 871.467, 735.062 872.060 C 735.853 872.560, 738.638 872.976, 741.250 872.985 C 746.733 873.002, 750 870.562, 750 866.449 C 750 863.128, 752.997 861.871, 772.882 856.854 C 789.657 852.622, 799.639 851.388, 819.453 851.098 C 826.940 850.988, 832.954 850.453, 833.703 849.831 C 834.416 849.239, 835 847.573, 835 846.128 L 835 843.500 813.250 843.672 C 788.665 843.865, 777.096 845.425, 754.076 851.650 L 740.652 855.280 735.231 849.140 C 730.611 843.907, 729.312 843, 726.440 843 C 724.218 843, 722.742 843.613, 722.106 844.801 M 586.203 866.250 C 586.578 873.056, 587.293 875.866, 590.288 882.303 C 595.988 894.553, 615.576 922, 618.618 922 C 620.619 922, 621.882 918.074, 620.939 914.786 C 620.508 913.283, 617.249 906.979, 613.697 900.777 C 610.145 894.575, 605.104 885.225, 602.494 880 C 597.803 870.609, 588.802 858, 586.788 858 C 586.117 858, 585.910 860.917, 586.203 866.250 M 1113 948.160 C 1109.975 949.267, 1104.364 950.543, 1100.531 950.995 C 1094.102 951.753, 1093.287 952.125, 1090.031 955.795 C 1088.089 957.982, 1083.202 963.425, 1079.171 967.889 C 1072.717 975.037, 1071.917 976.346, 1072.470 978.862 C 1073.463 983.385, 1078.102 987.208, 1082.130 986.822 C 1085.286 986.520, 1085.500 986.267, 1085.500 982.828 C 1085.500 980.262, 1086.285 978.304, 1088.105 976.328 C 1089.537 974.772, 1092.613 970.933, 1094.940 967.796 C 1098.632 962.819, 1099.873 961.888, 1104.686 960.489 C 1118.200 956.560, 1124.404 952.100, 1122.663 947.564 C 1121.890 945.549, 1119.776 945.679, 1113 948.160 M 647 956.341 C 647 960.385, 649.620 967.613, 653.281 973.667 C 655.221 976.875, 661.785 988.846, 667.867 1000.268 C 685.406 1033.204, 691.409 1041.448, 725.668 1079.638 C 733.250 1088.091, 761.043 1113.163, 771.593 1121.067 C 775.680 1124.129, 783.770 1129.497, 789.571 1132.995 C 795.372 1136.494, 801.088 1140.739, 802.272 1142.429 C 804.965 1146.268, 807.027 1147.927, 809.156 1147.968 C 810.196 1147.988, 811.908 1150.342, 813.758 1154.297 C 815.379 1157.761, 818.168 1162.261, 819.956 1164.297 C 823.938 1168.832, 827.971 1169.210, 832.975 1165.519 L 836.338 1163.038 838.799 1169.269 C 840.153 1172.696, 842.347 1176.959, 843.675 1178.742 C 846.306 1182.275, 850.482 1183.918, 852.273 1182.127 C 853.945 1180.455, 854.785 1180.742, 855.564 1183.250 C 856.668 1186.805, 859.780 1190.709, 861.966 1191.281 C 863.265 1191.621, 865.479 1190.651, 868.271 1188.520 L 872.573 1185.235 874.432 1189.867 C 876.608 1195.288, 880.643 1200, 883.110 1200 C 884.065 1200, 886.158 1198.897, 887.761 1197.548 L 890.675 1195.096 892.298 1198.499 C 894.333 1202.766, 898.220 1205.413, 901.312 1204.636 C 904.679 1203.791, 910.650 1197.625, 913.449 1192.101 C 915.645 1187.767, 916.142 1187.367, 918.840 1187.763 C 922.866 1188.354, 926.755 1185.320, 931.483 1177.898 C 935.074 1172.261, 935.375 1172.030, 937.099 1173.589 C 938.325 1174.699, 939.768 1175.024, 941.520 1174.584 C 945.161 1173.670, 951.912 1166.605, 955.932 1159.500 C 959.298 1153.551, 959.337 1153.522, 960.414 1156.104 C 962.048 1160.022, 964.015 1162, 966.278 1162 C 969.801 1162, 974.721 1157.255, 978.550 1150.167 L 982.245 1143.325 985.728 1149.913 C 988.952 1156.010, 1000 1182.284, 1000 1183.853 C 1000 1184.234, 998.414 1185.399, 996.476 1186.443 C 989.384 1190.262, 987.233 1197.349, 989.399 1209.755 C 991.233 1220.266, 995.591 1229.006, 1003.738 1238.516 C 1007.311 1242.687, 1009.956 1246.377, 1009.617 1246.716 C 1009.278 1247.056, 1009 1246.808, 1009 1246.167 C 1009 1245.525, 1008.593 1245, 1008.095 1245 C 1007.049 1245, 1007.484 1252.303, 1009.585 1270.074 C 1010.403 1276.990, 1010.821 1283.303, 1010.514 1284.103 C 1010.207 1284.903, 1010.641 1286.444, 1011.479 1287.529 C 1012.979 1289.471, 1013.033 1289.463, 1015.121 1287 C 1017.030 1284.747, 1017.186 1283.659, 1016.691 1276 C 1016.372 1271.056, 1015.049 1264.043, 1013.529 1259.236 C 1011.780 1253.706, 1011.213 1250.441, 1011.815 1249.366 C 1012.570 1248.016, 1013.178 1248.360, 1015.607 1251.513 C 1017.198 1253.577, 1020.975 1259.338, 1024 1264.313 C 1027.025 1269.289, 1029.950 1273.167, 1030.500 1272.930 C 1031.066 1272.687, 1031.371 1269.677, 1031.202 1266 C 1030.809 1257.422, 1027.475 1250.611, 1019.514 1242.127 L 1013.296 1235.500 1012.633 1223 C 1011.851 1208.261, 1011.334 1205.788, 1009.121 1206.217 C 1007.742 1206.485, 1007.500 1208.198, 1007.500 1217.697 C 1007.500 1228.362, 1007.420 1228.789, 1005.710 1227.240 C 1001.865 1223.755, 996.946 1211.746, 996.324 1204.321 C 995.759 1197.587, 995.872 1197.037, 998.317 1194.592 C 1001.930 1190.979, 1003.222 1191.330, 1005.349 1196.504 C 1007.913 1202.740, 1009.246 1202.195, 1008.839 1195.079 L 1008.500 1189.157 1014.804 1187.453 C 1021.397 1185.671, 1024 1183.925, 1024 1181.289 C 1024 1179.961, 1023.117 1179.833, 1018.250 1180.452 C 1007.212 1181.857, 1007.913 1182.120, 1006.356 1176 C 1003.181 1163.513, 990.054 1141, 985.949 1141 C 983.259 1141, 983.511 1139.358, 986.646 1136.452 C 988.347 1134.876, 990.474 1134, 992.603 1134 C 996.035 1134, 997.528 1132.711, 1009.259 1119.626 C 1013.219 1115.208, 1013.821 1114.871, 1015.685 1116.036 C 1018.977 1118.091, 1023.373 1114.193, 1027.951 1105.156 C 1031.910 1097.344, 1037.916 1090, 1040.348 1090 C 1043.469 1090, 1050.162 1083.567, 1055.783 1075.164 L 1061.797 1066.173 1065.769 1076.337 C 1075.379 1100.925, 1083.582 1131.418, 1090.967 1170.006 C 1097.147 1202.298, 1098.695 1209.648, 1104.026 1232 C 1106.715 1243.275, 1109.465 1255.556, 1110.138 1259.292 L 1111.361 1266.083 1113.431 1264.010 C 1116.279 1261.156, 1115.904 1254.182, 1111.525 1228.579 C 1109.613 1217.395, 1106.684 1197.728, 1105.017 1184.873 C 1103.350 1172.018, 1100.611 1153.306, 1098.930 1143.292 C 1093.804 1112.750, 1081.354 1065.496, 1077.389 1061.532 C 1075.874 1060.017, 1072.788 1059.480, 1068.070 1059.911 C 1065.882 1060.110, 1066.190 1059.502, 1071.155 1053.816 C 1074.188 1050.342, 1079.967 1042.550, 1083.997 1036.500 C 1094.405 1020.876, 1104.668 1006.567, 1108.109 1002.883 C 1109.731 1001.146, 1110.804 999.471, 1110.493 999.159 C 1109.500 998.167, 1097.881 1011.127, 1085.647 1026.873 C 1079.128 1035.263, 1073.583 1041.916, 1073.324 1041.658 C 1073.066 1041.399, 1073.318 1039.506, 1073.886 1037.451 C 1075.333 1032.209, 1074.014 1030.275, 1068.420 1029.436 C 1061.829 1028.447, 1059.696 1029.807, 1057.091 1036.657 C 1054.408 1043.711, 1048.710 1054.435, 1049.376 1051.176 C 1050.007 1048.091, 1047.114 1045.300, 1042.364 1044.408 C 1035.513 1043.123, 1034.186 1044.721, 1027.690 1062.068 L 1021.880 1077.584 1018.433 1077.182 C 1013.498 1076.606, 1010.548 1078.987, 1006.552 1086.771 C 1002.548 1094.572, 1002.239 1094.525, 1004.988 1086.534 C 1007.815 1078.317, 1007.062 1076.381, 1000.463 1074.904 C 991.487 1072.896, 989.930 1074.106, 984.801 1087.082 C 980.819 1097.157, 980.389 1097.826, 979 1096.114 C 978.175 1095.097, 975.417 1093.763, 972.871 1093.149 C 969.115 1092.243, 967.683 1092.312, 965.273 1093.513 C 962.704 1094.795, 962.007 1096.106, 960.099 1103.247 C 956.770 1115.706, 949.644 1132.586, 947.921 1132.094 C 935.924 1128.666, 932.022 1129.718, 929.369 1137.094 C 927.499 1142.296, 926.997 1142.533, 920.882 1141.111 C 917.175 1140.250, 911.311 1141.878, 909.900 1144.161 C 909.473 1144.853, 908.511 1144.511, 907.200 1143.200 C 904.741 1140.741, 894.982 1139.231, 891.577 1140.783 C 889.355 1141.795, 889.305 1141.684, 889.096 1135.233 C 888.862 1127.999, 887.908 1125.378, 885.251 1124.666 C 874.101 1121.679, 874 1121.628, 874 1118.973 C 874 1114, 870.784 1111.971, 860.249 1110.297 C 855.726 1109.579, 848 1113.246, 848 1116.112 C 848 1117.682, 847.568 1118.048, 846.295 1117.560 C 841.799 1115.835, 835.962 1115.790, 832.455 1117.454 C 830.465 1118.399, 828.678 1119.011, 828.483 1118.816 C 828.288 1118.621, 827.452 1114.261, 826.626 1109.126 C 825.799 1103.991, 824.886 1099.553, 824.596 1099.263 C 824.307 1098.973, 821.242 1097.928, 817.785 1096.939 C 814.009 1095.860, 812.528 1095.114, 814.076 1095.071 C 820.668 1094.889, 825.827 1081.827, 821.152 1077.152 C 819.564 1075.564, 819.494 1075.045, 820.652 1073.461 C 821.393 1072.447, 822 1072.052, 822 1072.584 C 822 1074.092, 831.964 1084, 833.482 1084 C 834.227 1084, 835.766 1082.497, 836.902 1080.659 L 838.967 1077.318 852.233 1076.162 C 859.530 1075.526, 871.350 1073.917, 878.500 1072.586 C 885.650 1071.255, 899.375 1069.670, 909 1069.064 C 918.625 1068.458, 933.912 1066.870, 942.970 1065.535 C 952.029 1064.200, 959.620 1063.286, 959.838 1063.505 C 960.429 1064.096, 952.266 1078.756, 948.148 1084.500 C 946.176 1087.250, 940.846 1093.823, 936.302 1099.106 C 928.925 1107.685, 923.037 1117.272, 923.010 1120.750 C 922.994 1122.756, 921.759 1122.259, 915.450 1117.706 C 897.762 1104.939, 868.477 1088.526, 855.093 1083.878 C 841.801 1079.261, 833.568 1083.793, 840.917 1091.681 C 842.535 1093.417, 843.677 1093.719, 846.960 1093.278 C 853.488 1092.403, 871.427 1099.898, 896.500 1113.976 C 903.650 1117.991, 912.250 1122.796, 915.612 1124.654 L 921.724 1128.032 927.794 1123.979 C 942.087 1114.434, 959.863 1091.294, 968.726 1070.696 C 970.665 1066.188, 972.346 1062.387, 972.461 1062.248 C 972.576 1062.110, 976.682 1061.263, 981.585 1060.366 C 990.837 1058.674, 996 1056.712, 996 1054.889 C 996 1054.306, 998.138 1054.992, 1000.750 1056.414 C 1005.702 1059.109, 1005.656 1059.052, 997.530 1052.390 C 995.896 1051.051, 993.918 1050.201, 993.132 1050.503 C 992.347 1050.804, 988.385 1051.331, 984.327 1051.674 C 977.989 1052.210, 977.030 1052.084, 977.529 1050.784 C 977.849 1049.952, 979.210 1048.770, 980.555 1048.157 C 982.194 1047.410, 983 1046.223, 983 1044.557 C 983 1043.060, 983.830 1041.626, 985.085 1040.955 C 986.232 1040.341, 987.950 1038.097, 988.902 1035.969 L 990.635 1032.100 994.067 1034.155 C 995.955 1035.285, 998.490 1037.120, 999.699 1038.232 C 1002.012 1040.358, 1005 1040.045, 1005 1037.676 C 1005 1035.760, 994.935 1026.413, 990.692 1024.390 C 986.169 1022.233, 982.251 1023.154, 981.392 1026.575 C 980.608 1029.700, 980.647 1029.713, 967.102 1021.593 C 952.895 1013.076, 948.611 1011, 945.240 1011 C 943.678 1011, 941.905 1010.505, 941.301 1009.901 C 940.688 1009.288, 939.231 1009.109, 938.009 1009.497 C 936.311 1010.036, 935.972 1010.678, 936.502 1012.346 C 936.879 1013.531, 937.415 1015.699, 937.694 1017.164 L 938.202 1019.828 929.851 1017.940 C 919.090 1015.506, 912.368 1015.478, 908.500 1017.851 C 905.519 1019.679, 905.438 1019.669, 895.733 1016.345 C 890.287 1014.480, 883.961 1013, 881.434 1013 C 876.322 1013, 871 1015.308, 871 1017.526 C 871 1018.456, 870.017 1019, 868.336 1019 C 865.817 1019, 865.927 1018.801, 870.336 1015.366 C 873.550 1012.862, 875 1010.997, 875 1009.366 C 875 1004.988, 868.621 1006.767, 857.803 1014.162 C 854.336 1016.532, 849.925 1019.312, 848 1020.341 C 846.075 1021.369, 843.600 1023.029, 842.500 1024.029 C 838.946 1027.261, 828.438 1032.691, 816.326 1037.555 C 800.574 1043.880, 793 1047.731, 793 1049.415 C 793 1051.219, 801.665 1053.317, 809.547 1053.420 L 815.594 1053.500 810.323 1060 C 804.294 1067.436, 799 1076.765, 799 1079.956 C 799 1081.152, 799.509 1083.114, 800.132 1084.316 C 802.342 1088.579, 808.159 1095, 809.817 1095.006 C 810.840 1095.010, 810.324 1095.626, 808.502 1096.575 C 805.747 1098.012, 805.263 1097.996, 802.516 1096.373 C 799.373 1094.517, 789.812 1093.865, 786.893 1095.309 C 785.678 1095.910, 784.973 1095.350, 784.005 1093.012 C 782.258 1088.795, 779.355 1087, 774.280 1087 C 770.757 1087, 769.287 1087.649, 765.916 1090.695 C 761.680 1094.522, 761.189 1096.970, 763.549 1102.500 C 764.832 1105.508, 741.002 1083.919, 730.434 1072.500 C 719.455 1060.637, 705.743 1044.338, 698.478 1034.514 C 690.837 1024.181, 686.517 1016.809, 675.030 994.500 C 660.998 967.248, 657.689 961.745, 652.823 957.580 C 647.913 953.378, 647 953.184, 647 956.341 M 949.725 1030.451 C 946.570 1037.066, 940.430 1038.581, 927.114 1036.031 C 919.421 1034.558, 918.875 1034.658, 915.074 1038.220 C 912.093 1041.013, 910.988 1041.416, 906.574 1041.316 C 903.783 1041.253, 898.157 1040.135, 894.072 1038.830 L 886.644 1036.459 882.888 1040.479 L 879.131 1044.500 867.196 1044.481 C 855.500 1044.462, 855.157 1044.397, 850.064 1041.231 C 847.206 1039.454, 844.692 1038, 844.478 1038 C 844.264 1038, 841.706 1039.688, 838.794 1041.750 C 834.359 1044.892, 833.447 1046.068, 833.175 1049 C 832.996 1050.925, 831.530 1054.862, 829.917 1057.750 C 828.303 1060.638, 827.182 1063, 827.426 1063 C 827.670 1063, 829.137 1062.515, 830.685 1061.923 C 832.233 1061.331, 841.150 1060.199, 850.500 1059.409 C 859.850 1058.618, 871.501 1057.278, 876.391 1056.430 C 881.379 1055.566, 893.672 1054.712, 904.391 1054.485 C 932.089 1053.899, 955.813 1053.025, 961.122 1052.396 C 964.849 1051.954, 966.003 1051.330, 967.086 1049.174 C 967.824 1047.703, 969.281 1045.237, 970.323 1043.692 C 971.365 1042.148, 972.057 1040.792, 971.859 1040.679 C 971.662 1040.566, 969.250 1038.657, 966.500 1036.438 C 962.158 1032.935, 952.888 1027, 951.757 1027 C 951.544 1027, 950.630 1028.553, 949.725 1030.451 M 769.245 1104.064 L 765.991 1105.752 770.550 1109.488 C 773.058 1111.542, 775.287 1113.046, 775.504 1112.830 C 776.010 1112.323, 773.920 1103.680, 773.112 1102.939 C 772.775 1102.630, 771.035 1103.137, 769.245 1104.064 M 1395.449 1112.071 C 1393.221 1112.487, 1386.696 1114.927, 1380.949 1117.493 C 1375.202 1120.058, 1362.400 1125.677, 1352.500 1129.978 C 1304.843 1150.682, 1302.291 1152.119, 1275.797 1173.179 C 1271.176 1176.852, 1262.469 1182.537, 1256.448 1185.812 C 1250.426 1189.087, 1241.542 1194.069, 1236.704 1196.884 C 1231.867 1199.698, 1227.479 1202, 1226.954 1202 C 1226.429 1202, 1225.989 1199.638, 1225.976 1196.750 C 1225.908 1182.330, 1218.886 1167.606, 1210.254 1163.788 C 1206.712 1162.221, 1204.120 1161.874, 1198.037 1162.150 C 1190.791 1162.479, 1190.027 1162.737, 1185.624 1166.345 C 1180.027 1170.931, 1175.397 1178.621, 1174.091 1185.500 C 1172.780 1192.404, 1171.842 1209.523, 1172.608 1212.574 C 1172.955 1213.956, 1173.747 1214.928, 1174.369 1214.733 C 1175.787 1214.289, 1186.349 1199.063, 1189.521 1192.893 C 1192.497 1187.103, 1196.745 1182, 1198.589 1182 C 1199.365 1182, 1200.968 1182.968, 1202.151 1184.151 C 1204.226 1186.226, 1204.280 1186.850, 1203.682 1201.901 C 1202.846 1222.930, 1202.783 1223.164, 1196.631 1227.838 C 1193.809 1229.982, 1187.940 1234.928, 1183.589 1238.829 C 1175.775 1245.835, 1166.280 1251.578, 1158.500 1254.005 C 1153.435 1255.585, 1151 1257.703, 1151 1260.529 C 1151 1263.705, 1155.761 1271.790, 1158.062 1272.520 C 1159.303 1272.914, 1162.628 1271.762, 1167.254 1269.335 C 1172.994 1266.323, 1177.273 1262.742, 1187.842 1252.102 L 1201.185 1238.672 1200.594 1244.086 C 1200.269 1247.064, 1199.537 1255.800, 1198.967 1263.500 C 1197.612 1281.810, 1195.463 1298.988, 1192.901 1312 C 1189.522 1329.156, 1181.245 1361.370, 1175.815 1378.500 C 1165.202 1411.985, 1162.816 1420.046, 1158.047 1438.540 C 1152.958 1458.273, 1140.526 1498.362, 1137.100 1506.084 L 1135.141 1510.500 1135.071 1502.398 C 1135.032 1497.941, 1136.125 1485.343, 1137.500 1474.400 C 1140.368 1451.576, 1140.622 1436.936, 1138.467 1418.631 C 1136.991 1406.099, 1134.039 1390.864, 1132.096 1385.753 C 1131.567 1384.361, 1129.711 1381.602, 1127.972 1379.621 C 1125.065 1376.310, 1124.793 1375.394, 1124.590 1368.260 C 1124.420 1362.246, 1123.509 1358.016, 1120.541 1349.455 L 1116.711 1338.411 1120.468 1328.455 C 1131.337 1299.655, 1133.954 1290.226, 1140.469 1256.396 C 1146.258 1226.333, 1148.015 1214.667, 1147.944 1206.757 C 1147.834 1194.639, 1144.635 1190.572, 1135.792 1191.307 C 1124.465 1192.249, 1116.427 1206.190, 1121.526 1216.050 C 1123.946 1220.729, 1125.986 1219.564, 1127.898 1212.409 C 1128.499 1210.159, 1129.893 1207.501, 1130.996 1206.504 C 1132.953 1204.733, 1133 1204.752, 1133 1207.294 C 1133 1211.254, 1129.459 1228.904, 1123.339 1255.453 C 1116.163 1286.582, 1114.625 1291.731, 1104.904 1317.169 C 1100.420 1328.901, 1094.935 1343.900, 1092.714 1350.500 C 1088.721 1362.368, 1088.671 1362.696, 1088.226 1380.250 C 1087.919 1392.405, 1088.112 1398, 1088.840 1398 C 1090.111 1398, 1094.312 1391.926, 1099.214 1383 C 1102.533 1376.957, 1111.974 1353.049, 1113.547 1346.703 C 1113.928 1345.165, 1114.458 1344.125, 1114.724 1344.391 C 1115.694 1345.361, 1120.519 1370.631, 1120.380 1374.017 C 1120.302 1375.933, 1119.905 1380.003, 1119.498 1383.063 C 1118.969 1387.042, 1119.357 1392.166, 1120.860 1401.063 C 1123.638 1417.506, 1125.241 1438.580, 1124.470 1448.500 C 1124.128 1452.900, 1122.963 1463.025, 1121.881 1471 C 1118.793 1493.759, 1118.426 1505.887, 1120.456 1518.031 C 1121.823 1526.200, 1122.047 1531.158, 1121.499 1541.018 C 1120.899 1551.814, 1121.022 1553.774, 1122.376 1554.897 C 1125.188 1557.231, 1131.152 1551.182, 1139.863 1537.160 C 1150.144 1520.610, 1156.667 1507.485, 1165.008 1486.564 C 1171.330 1470.709, 1174.106 1462.451, 1186.548 1422.500 C 1189.118 1414.250, 1193.879 1399.175, 1197.130 1389 C 1203.436 1369.259, 1211.315 1338.608, 1215.443 1317.757 C 1218.289 1303.377, 1220.273 1285.396, 1222.477 1254 C 1224.889 1219.639, 1224.510 1221.644, 1229.081 1219.075 C 1233.308 1216.699, 1235.480 1213.692, 1234.608 1211.422 C 1233.864 1209.483, 1229.070 1209.627, 1226.829 1211.655 C 1225.115 1213.205, 1225 1213.185, 1225 1211.327 C 1225 1209.504, 1226.075 1209.254, 1238.250 1208.240 C 1258.048 1206.591, 1267.383 1202.598, 1284.825 1188.316 C 1309.157 1168.393, 1308.311 1168.912, 1350.962 1147.795 C 1373.217 1136.776, 1393.186 1127.140, 1395.338 1126.381 C 1400.205 1124.663, 1404.446 1124.610, 1405.747 1126.250 C 1409.298 1130.728, 1410.504 1147.848, 1410.484 1193.500 L 1410.468 1229.500 1404.153 1265.500 C 1400.680 1285.300, 1395.622 1314.550, 1392.913 1330.500 C 1390.204 1346.450, 1387.281 1363.100, 1386.419 1367.500 C 1383.002 1384.938, 1374.661 1419.837, 1370.929 1432.316 C 1363.501 1457.151, 1360.114 1469.927, 1359.028 1477.211 C 1358.431 1481.220, 1357.662 1497.213, 1357.320 1512.750 C 1356.972 1528.544, 1356.297 1541, 1355.790 1541 C 1355.290 1541, 1355.102 1541.356, 1355.371 1541.790 C 1355.639 1542.225, 1355.277 1543.913, 1354.567 1545.540 C 1352.279 1550.780, 1342.127 1584.125, 1339.052 1596.500 C 1335.657 1610.163, 1331.904 1621.525, 1326.521 1634.442 C 1324.471 1639.361, 1321.907 1646.111, 1320.824 1649.442 C 1318.915 1655.314, 1314.888 1674.554, 1313.535 1684.272 L 1312.871 1689.044 1310.102 1687.073 C 1305.865 1684.055, 1286.915 1675, 1284.839 1675 C 1281.975 1675, 1282.565 1676.341, 1288.883 1684.195 C 1296.592 1693.777, 1303.807 1700.446, 1309.410 1703.169 C 1313.470 1705.141, 1314.213 1705.224, 1316.561 1703.967 C 1321.060 1701.560, 1322.924 1696.152, 1325.097 1679.209 C 1327.739 1658.597, 1327.955 1657.691, 1335.532 1635.419 C 1339.401 1624.046, 1343.636 1608.899, 1346.015 1597.919 C 1348.211 1587.789, 1350.714 1577.025, 1351.576 1574 C 1356.663 1556.167, 1358.170 1552.081, 1359.864 1551.543 C 1360.840 1551.233, 1362.445 1549.297, 1363.431 1547.240 C 1365.336 1543.262, 1365.408 1542.597, 1367.032 1514 C 1368.900 1481.121, 1369.965 1475.291, 1379.458 1446 C 1389.629 1414.620, 1398.012 1378.252, 1407.005 1326.500 C 1408.152 1319.900, 1409.944 1310.450, 1410.986 1305.500 C 1413.036 1295.769, 1420.298 1255.106, 1422.594 1240.500 C 1424.856 1226.111, 1425.254 1208.794, 1424.134 1173.500 C 1423.009 1138.058, 1421.953 1129.786, 1417.323 1120.147 C 1415.425 1116.194, 1413.889 1114.434, 1411.450 1113.415 C 1407.245 1111.658, 1400.637 1111.103, 1395.449 1112.071 M 956.833 1286.857 C 956.650 1287.328, 951.100 1290.058, 944.500 1292.923 C 927.684 1300.223, 918.636 1305.332, 897.220 1319.621 C 886.955 1326.470, 877.589 1332.316, 876.406 1332.613 C 874.928 1332.984, 870.626 1331.092, 862.657 1326.568 C 850.801 1319.837, 839.404 1314.505, 830.500 1311.523 C 809.898 1304.624, 776.874 1302.112, 765 1306.541 C 763.075 1307.259, 756.795 1308.599, 751.044 1309.520 C 740.218 1311.252, 731.050 1313.808, 725 1316.782 C 721.817 1318.347, 721.416 1319.032, 720.574 1324.344 C 719.427 1331.582, 720.900 1336.526, 729.113 1353 C 736.940 1368.701, 738.152 1372.852, 745.498 1409.152 C 753.783 1450.092, 755.166 1460.126, 759.530 1511 C 765.091 1575.809, 765.382 1611.901, 760.538 1636 C 758.406 1646.612, 758.053 1650.088, 758.888 1652.250 C 761.107 1657.992, 763.909 1655.028, 769.903 1640.596 C 784.174 1606.238, 789.726 1566.415, 787.067 1517.500 C 784.599 1472.120, 781.753 1449.606, 773.372 1409.151 C 764.638 1366.989, 761.163 1355.634, 751.092 1336.340 L 747.354 1329.179 750.302 1328.590 C 754.861 1327.678, 761.299 1327.886, 768.915 1329.192 C 775.673 1330.351, 775.921 1330.320, 777.748 1328.063 C 779.545 1325.844, 780.177 1325.748, 792.219 1325.870 C 821.043 1326.162, 837.650 1332.658, 888 1363.336 C 927.978 1387.695, 975.723 1424.961, 993.650 1445.799 C 1002.002 1455.508, 1007.943 1464.575, 1012.537 1474.629 C 1016.949 1484.282, 1021 1497.899, 1021 1503.077 C 1021 1507.729, 1023.569 1509.770, 1026.612 1507.536 C 1028.196 1506.373, 1028.473 1504.970, 1028.330 1498.825 C 1027.878 1479.292, 1014.827 1449.931, 998.200 1431.042 C 995.340 1427.793, 993 1424.227, 993 1423.118 C 993 1420.516, 985.563 1389.757, 979.145 1365.810 C 976.389 1355.531, 973.197 1342.790, 972.050 1337.496 C 969.613 1326.250, 966.888 1303.377, 966.850 1293.857 C 966.824 1287.266, 966.800 1287.210, 963.787 1286.607 C 959.572 1285.764, 957.226 1285.849, 956.833 1286.857 M 1008.747 1294.102 C 1008.051 1300.765, 1000.845 1333.091, 998.024 1342.204 C 995.361 1350.803, 992.166 1354.636, 986.703 1355.785 L 982.500 1356.669 986.259 1358.524 C 995.657 1363.162, 1000.016 1355.683, 1006.414 1323.941 C 1011.922 1296.614, 1012.392 1292.919, 1010.663 1290.554 C 1009.450 1288.895, 1009.252 1289.262, 1008.747 1294.102 M 943.500 1306.558 C 925.477 1316.183, 925.236 1316.335, 904.225 1331.356 C 890.730 1341.003, 889.156 1342.418, 890.725 1343.494 C 907.618 1355.084, 949.713 1378.757, 961 1383.015 C 962.925 1383.741, 965.063 1384.765, 965.750 1385.290 C 967.447 1386.586, 967.323 1390.474, 965.471 1394.055 C 963.967 1396.965, 964.002 1397.062, 967.721 1400.227 C 969.800 1401.995, 975.888 1407.702, 981.250 1412.908 C 986.612 1418.115, 991 1422.151, 991 1421.878 C 991 1421.604, 988.484 1414.208, 985.408 1405.440 C 970.995 1364.353, 964.064 1335.241, 962.386 1308.750 C 961.958 1301.987, 961.296 1298.002, 960.603 1298.006 C 959.996 1298.010, 952.300 1301.858, 943.500 1306.558 M 1110 1379.064 C 1110 1379.741, 1108.879 1388.216, 1107.509 1397.897 C 1106.139 1407.579, 1103.877 1426.300, 1102.484 1439.500 C 1098.356 1478.594, 1092.741 1509.820, 1086.495 1528.414 C 1083.695 1536.747, 1083.335 1538.731, 1084.418 1539.829 C 1090.013 1545.499, 1103.166 1501.109, 1110.591 1451.500 C 1114.549 1425.054, 1114.959 1379.476, 1111.250 1378.247 C 1110.563 1378.020, 1110 1378.387, 1110 1379.064 M 1385.445 1505.431 C 1383.664 1506.835, 1380.860 1511.104, 1378.719 1515.669 C 1373.533 1526.730, 1368.033 1552, 1370.813 1552 C 1371.260 1552, 1373.847 1550.015, 1376.563 1547.589 C 1379.278 1545.162, 1381.637 1543.312, 1381.804 1543.476 C 1382.294 1543.957, 1378.103 1591.913, 1375.904 1611 C 1372.477 1640.746, 1369.346 1658.582, 1362.916 1685 C 1360.708 1694.075, 1358.259 1704.515, 1357.475 1708.199 C 1355.382 1718.033, 1351.268 1753.948, 1349.995 1773.500 C 1347.176 1816.797, 1341.994 1859.498, 1336.955 1880.963 C 1335.222 1888.343, 1320.041 1934.840, 1320.010 1932.860 C 1320.004 1932.508, 1320.854 1928.008, 1321.899 1922.860 C 1322.943 1917.712, 1324.098 1911.224, 1324.466 1908.441 C 1325.097 1903.667, 1324.988 1903.316, 1322.520 1902.191 C 1318.242 1900.242, 1312.519 1900.814, 1303.248 1904.117 C 1277.665 1913.232, 1256.728 1915.822, 1252.438 1910.403 C 1249.553 1906.759, 1249 1903.796, 1249 1891.992 C 1249 1880.851, 1248.862 1880.017, 1246.777 1878.557 C 1243.839 1876.498, 1240.685 1876.586, 1238.698 1878.782 C 1236.652 1881.042, 1231.669 1891.931, 1222.810 1913.500 C 1212.247 1939.220, 1200.255 1962.334, 1188.051 1980.500 C 1185.464 1984.350, 1177.307 1995.608, 1169.924 2005.517 C 1153.144 2028.038, 1144.662 2040.487, 1145.135 2041.902 C 1145.526 2043.072, 1162.773 2026.742, 1172.490 2016 C 1180.211 2007.465, 1191.383 1992.405, 1198.596 1980.809 C 1208.211 1965.350, 1222.293 1936.630, 1230.116 1916.523 L 1237.500 1897.547 1238.049 1904.523 C 1238.811 1914.211, 1242.829 1921.657, 1248.962 1924.750 C 1259.132 1929.879, 1281.819 1926.180, 1306.385 1915.388 C 1310.722 1913.482, 1314.584 1912.053, 1314.967 1912.212 C 1315.350 1912.370, 1314.177 1920.600, 1312.361 1930.500 C 1308.029 1954.120, 1306.406 1971.079, 1307.935 1976.757 C 1309.919 1984.126, 1313.330 1981.663, 1316.471 1970.592 C 1318.488 1963.484, 1321.737 1956.711, 1329.594 1943.231 C 1331.242 1940.404, 1331.301 1939.836, 1330.026 1939.034 C 1328.330 1937.965, 1330.657 1930.771, 1340.386 1907 C 1347.475 1889.677, 1349.776 1881.514, 1355.323 1854 C 1359.868 1831.454, 1363.584 1805.393, 1366.510 1775.545 C 1369.740 1742.590, 1373.850 1717.830, 1380.515 1691.168 C 1392.381 1643.704, 1397.158 1610.345, 1402.066 1540.659 C 1403.659 1518.042, 1403.953 1509.192, 1403.168 1507.470 C 1401.062 1502.847, 1390.293 1501.608, 1385.445 1505.431 M 1177 1518.572 C 1177 1518.961, 1177.711 1519.800, 1178.581 1520.436 C 1180.815 1522.069, 1179.413 1528.993, 1171.426 1555.787 C 1154.754 1611.710, 1151.494 1630.347, 1144.007 1712.500 C 1137.042 1788.927, 1133.875 1807.418, 1120.794 1848 C 1117.821 1857.226, 1117.114 1858.543, 1114.968 1858.851 C 1108.423 1859.790, 1102.746 1868.296, 1101.520 1879 C 1101.019 1883.372, 1101.290 1885.270, 1102.840 1888.256 L 1104.791 1892.012 1098.863 1906.256 C 1091.362 1924.281, 1071.565 1965.575, 1059.942 1987.442 C 1051.173 2003.940, 1049.420 2009.674, 1055.215 2002.901 C 1065.125 1991.318, 1078.429 1974.148, 1083.384 1966.547 C 1093.628 1950.832, 1105.369 1926.898, 1116.030 1900 C 1117.883 1895.325, 1121.041 1888.949, 1123.047 1885.831 C 1125.053 1882.713, 1127.272 1878.101, 1127.977 1875.581 C 1128.683 1873.062, 1129.539 1871.002, 1129.880 1871.003 C 1130.221 1871.005, 1133.812 1872.357, 1137.861 1874.006 C 1145.727 1877.212, 1159.006 1881.228, 1176 1885.540 C 1187.191 1888.380, 1213.184 1893.149, 1213.849 1892.484 C 1214.068 1892.265, 1214.008 1891.463, 1213.716 1890.702 C 1213.386 1889.843, 1208.877 1888.460, 1201.842 1887.061 C 1174.247 1881.571, 1131 1865.914, 1131 1861.414 C 1131 1860.624, 1132.605 1854.695, 1134.567 1848.239 C 1146.757 1808.121, 1149.619 1788.928, 1154.960 1711.500 C 1160.643 1629.111, 1162.591 1615.644, 1176.936 1559.588 C 1183.477 1534.026, 1185.067 1523.593, 1182.840 1520.851 C 1181.419 1519.102, 1177 1517.378, 1177 1518.572 M 584.181 1654.057 C 580.318 1655.606, 581.963 1659.133, 595.113 1677.500 C 612.647 1701.990, 636.121 1738.115, 659.769 1777 C 673.765 1800.014, 672.785 1798.549, 673.626 1797.707 C 675.299 1796.034, 655.536 1752.477, 644.040 1732.500 C 635.622 1717.872, 621.229 1695.954, 609.468 1679.854 C 604.209 1672.653, 600.083 1666.584, 600.300 1666.367 C 600.517 1666.149, 606.276 1665.910, 613.098 1665.834 C 630.379 1665.643, 698.668 1675.139, 736.500 1682.994 C 744.200 1684.593, 758.150 1687.484, 767.500 1689.419 C 776.850 1691.354, 797.100 1695.226, 812.500 1698.023 C 845.583 1704.031, 873.286 1709.919, 880.873 1712.555 C 881.762 1712.864, 880.620 1714.274, 877.632 1716.555 C 871.625 1721.142, 870.115 1726.784, 874.205 1729.359 C 875.534 1730.196, 876.417 1729.968, 878.205 1728.329 C 881.235 1725.552, 887.989 1722.209, 896 1719.521 C 901.733 1717.597, 902.721 1716.878, 904.375 1713.421 C 906.712 1708.538, 906.752 1705.488, 904.512 1703.013 C 898.929 1696.844, 861.056 1686.555, 812.500 1678.015 C 805.900 1676.854, 786.775 1673.247, 770 1670 C 723.474 1660.993, 707.117 1658.583, 671.907 1655.551 C 640.499 1652.847, 622.099 1652.536, 607.193 1654.458 C 594.993 1656.031, 593.607 1656.041, 590.542 1654.587 C 588.702 1653.714, 587.041 1653.029, 586.849 1653.063 C 586.657 1653.098, 585.456 1653.545, 584.181 1654.057 M 862.250 1732.647 C 859.602 1734.527, 859.399 1737.349, 861.613 1741.500 C 867.356 1752.267, 871.264 1769.892, 874.951 1801.651 C 876.110 1811.634, 878.587 1829.219, 880.456 1840.730 C 883.962 1862.324, 884.556 1868.900, 885.539 1897 C 885.856 1906.075, 886.460 1913.848, 886.882 1914.274 C 887.303 1914.699, 888.448 1914.163, 889.426 1913.082 C 893.342 1908.754, 894.017 1864.676, 890.644 1833.500 C 889.811 1825.800, 888.642 1811.400, 888.046 1801.500 C 886.132 1769.696, 882.626 1747.566, 877.917 1737.546 C 875.335 1732.055, 875.335 1732.055, 869.297 1731.495 C 865.928 1731.182, 863.830 1731.525, 862.250 1732.647 M 682.388 1820.975 C 671.534 1823.281, 669.861 1824.012, 670.188 1826.305 C 670.544 1828.812, 672.692 1828.930, 682 1826.952 C 691.263 1824.984, 709.580 1826.281, 723.241 1829.873 C 752.132 1837.470, 789.237 1855.303, 801.346 1867.413 C 804.557 1870.624, 805 1871.660, 805 1875.968 C 805 1888.759, 799.199 1893.372, 777.500 1897.839 C 747.903 1903.932, 718.008 1903.436, 693.662 1896.450 C 675.907 1891.355, 648.289 1879.141, 641.151 1873.226 C 633.755 1867.099, 631.695 1866.013, 627.450 1866.007 C 620.708 1865.996, 619.430 1868.927, 623.104 1875.975 C 625.412 1880.403, 627.840 1882.404, 635.735 1886.381 C 638.889 1887.970, 644.528 1892.600, 649.915 1898.023 C 671.334 1919.585, 686.691 1943.099, 694.427 1966.176 C 699.303 1980.723, 697.711 1982.427, 685.217 1976.030 C 663.459 1964.888, 649.648 1951.495, 622.282 1915 C 607.128 1894.790, 591 1878.215, 591 1882.849 C 591 1883.315, 594.778 1891.310, 599.394 1900.613 C 615.500 1933.068, 640.944 1964.107, 664.431 1979.952 C 677.978 1989.091, 692.063 1994.804, 697.891 1993.524 C 703.401 1992.314, 708 1984.680, 708 1976.742 C 708 1962.810, 694.450 1933.410, 678.179 1912.041 C 670.271 1901.654, 670.352 1901.831, 674.263 1903.465 C 679.738 1905.753, 695.031 1909.818, 704.559 1911.519 C 733.558 1916.695, 788.074 1909.697, 803.004 1898.882 C 809.919 1893.873, 814.039 1882.411, 812.533 1872.371 C 811.168 1863.271, 798.751 1853.507, 772.560 1840.937 C 755.471 1832.737, 742.590 1827.888, 727.163 1823.848 C 717.325 1821.272, 713.231 1820.740, 701 1820.448 C 693.025 1820.257, 684.650 1820.494, 682.388 1820.975 M 1317.154 1947 C 1316.420 1951.125, 1315.615 1955.625, 1315.365 1957 C 1315.063 1958.662, 1315.711 1957.992, 1317.297 1955 C 1319.293 1951.236, 1319.586 1949.600, 1319.086 1945 L 1318.489 1939.500 1317.154 1947" stroke="none" fill="#f4e4fc" fill-rule="evenodd"/></svg>