<?xml version="1.0" standalone="no"?>
<!DOCTYPE svg PUBLIC "-//W3C//DTD SVG 20010904//EN"
 "http://www.w3.org/TR/2001/REC-SVG-20010904/DTD/svg10.dtd">
<svg version="1.0" xmlns="http://www.w3.org/2000/svg"
 width="755.000000pt" height="521.000000pt" viewBox="0 0 755.000000 521.000000"
 preserveAspectRatio="xMidYMid meet">

<g transform="translate(0.000000,521.000000) scale(0.100000,-0.100000)"
fill="#000000" stroke="none">
<path d="M475 5143 c-188 -10 -401 -34 -413 -47 -12 -12 0 -53 78 -277 147
-419 194 -524 307 -681 177 -245 480 -461 768 -546 189 -56 276 -67 543 -67
l242 0 6 -35 c18 -108 59 -253 89 -315 51 -104 113 -176 228 -261 120 -90 174
-118 310 -167 15 -6 11 -15 -30 -66 -98 -121 -221 -352 -278 -523 -61 -184
-46 -272 65 -369 l57 -51 -43 -106 c-24 -59 -71 -208 -104 -332 -101 -371
-156 -464 -449 -756 -94 -94 -171 -178 -171 -187 0 -24 28 -47 58 -47 42 0 72
-11 72 -26 0 -25 44 -42 190 -75 161 -36 133 -34 735 -31 187 1 464 -3 615
-10 151 -7 473 -13 715 -13 432 0 443 1 605 28 229 38 303 42 512 27 162 -11
192 -10 258 4 89 19 124 42 128 83 4 42 -55 221 -155 468 -47 116 -110 282
-140 370 -37 108 -95 243 -179 415 -91 186 -124 265 -124 292 0 23 18 73 48
134 l47 99 3 130 c4 161 -18 258 -103 450 -61 137 -74 190 -56 223 6 11 48 42
93 69 177 104 281 248 351 487 20 68 44 127 55 139 25 25 88 36 210 36 284 2
986 171 1247 301 243 120 425 334 484 571 23 90 41 233 44 347 2 80 1 85 -25
107 -21 18 -28 33 -28 59 0 23 -6 38 -17 45 -37 19 -378 44 -603 44 -245 0
-366 -13 -545 -60 -292 -76 -494 -202 -815 -510 l-106 -102 -59 82 c-127 176
-263 294 -452 390 -238 121 -474 179 -923 224 -248 25 -721 25 -878 0 -385
-61 -599 -176 -745 -402 -25 -38 -53 -90 -63 -115 -9 -25 -19 -47 -21 -49 -2
-3 -49 40 -106 95 -158 155 -320 275 -472 352 -250 125 -619 179 -1060 155z
m558 -98 c331 -46 517 -126 764 -327 105 -86 294 -269 287 -279 -3 -5 11 -9
30 -9 20 0 38 -1 41 -2 3 -2 19 35 35 81 16 46 33 87 38 90 5 3 22 31 38 61
16 30 61 87 99 125 246 248 757 319 1601 225 472 -53 781 -174 1015 -397 102
-98 201 -242 193 -283 -4 -15 -1 -31 5 -34 17 -11 94 16 112 39 32 39 325 305
402 364 197 151 426 247 689 288 142 22 527 22 731 1 76 -9 139 -17 141 -19 1
-2 -1 -56 -5 -119 -21 -294 -76 -439 -229 -603 -161 -172 -339 -258 -745 -360
-446 -112 -650 -144 -952 -147 -49 0 -84 -36 -89 -90 -12 -152 -92 -335 -190
-440 -113 -119 -254 -195 -468 -250 -386 -99 -1438 -168 -1787 -117 -368 54
-565 188 -655 445 -23 66 -46 190 -59 315 -5 43 -10 57 -22 57 -9 0 -24 7 -33
15 -13 12 -27 13 -76 5 -106 -18 -324 -23 -448 -11 -455 45 -791 228 -1001
545 -60 92 -108 184 -161 313 -38 92 -185 505 -181 509 1 1 72 7 157 13 85 6
178 13 205 15 96 7 418 -4 518 -19z m2913 -2287 c-72 -97 -157 -317 -201 -523
-17 -77 -29 -113 -41 -120 -10 -5 -37 -27 -60 -48 -41 -37 -43 -37 -53 -18 -6
11 -24 28 -40 37 -25 15 -31 27 -41 83 -22 129 -82 338 -131 452 -27 65 -49
119 -49 122 0 2 64 8 143 12 78 4 212 13 297 20 85 7 165 13 178 14 l23 1 -25
-32z m-434 -745 c11 -10 29 -35 39 -55 74 -146 -85 -291 -238 -217 l-43 21 0
118 0 118 43 16 c98 37 158 36 199 -1z m405 4 c23 -23 31 -147 11 -168 -8 -8
-20 -29 -27 -47 -29 -71 -175 -62 -222 15 -17 28 -21 45 -17 93 5 65 19 88 71
114 43 22 160 17 184 -7z m1063 -466 c0 -3 -30 -14 -68 -23 -37 -9 -77 -20
-89 -24 -19 -5 -23 -2 -23 14 0 18 8 22 61 28 38 4 68 14 78 24 14 15 17 16
29 2 6 -9 12 -18 12 -21z m-2404 -33 l94 -11 0 -34 0 -34 -97 7 c-54 5 -108 8
-120 9 -27 0 -26 -3 -11 47 8 27 16 37 26 33 7 -3 56 -10 108 -17z m1353 -70
c12 -32 6 -38 -40 -38 -45 0 -53 19 -17 44 31 22 47 20 57 -6z m-624 -4 c10 3
20 -5 30 -23 l14 -28 -70 -7 c-39 -4 -73 -5 -75 -3 -3 3 3 20 13 39 17 32 20
34 46 26 15 -6 34 -7 42 -4z m714 -256 c39 -191 53 -301 45 -353 -12 -74 -21
-70 -33 14 -12 82 -57 257 -104 403 l-25 77 27 4 c14 2 33 5 42 6 13 1 22 -29
48 -151z m-677 105 c-6 -10 -27 -101 -47 -203 -44 -221 -77 -328 -111 -370
-30 -35 -54 -39 -54 -9 0 47 54 262 101 403 39 117 47 151 38 162 -15 19 -7
26 38 34 46 8 47 7 35 -17z"/>
<path d="M3170 4965 c-13 -16 -12 -24 19 -102 l21 -53 -40 0 c-23 0 -75 7
-116 15 -41 9 -79 13 -84 10 -14 -9 -12 -51 3 -63 19 -16 112 -32 182 -32 59
0 65 -2 69 -22 7 -31 13 -148 9 -148 -2 0 -40 14 -85 32 -83 33 -109 32 -116
-5 -4 -21 35 -45 126 -78 60 -21 78 -31 82 -49 8 -33 34 -47 54 -31 9 8 16 19
16 26 0 10 9 11 38 4 72 -16 318 -31 410 -25 87 6 92 5 92 -13 0 -24 32 -44
55 -35 9 4 19 20 22 35 4 21 13 31 32 35 72 15 190 56 201 69 14 17 7 43 -15
51 -9 4 -44 -3 -78 -14 -34 -11 -76 -23 -94 -26 -30 -7 -31 -6 -38 36 -3 24
-9 57 -12 75 l-5 32 83 3 84 3 0 30 c0 19 -5 30 -15 32 -8 1 -50 5 -92 8 l-77
7 -20 67 c-22 72 -41 97 -66 87 -25 -9 -29 -36 -12 -89 9 -28 14 -53 12 -55
-2 -3 -73 3 -157 12 -84 9 -203 18 -265 19 -111 2 -111 2 -117 28 -3 14 -16
51 -30 82 -26 60 -50 73 -76 42z m435 -240 c215 -22 233 -25 239 -42 3 -8 9
-46 12 -83 7 -69 7 -69 -21 -76 -60 -15 -505 9 -520 29 -1 1 -5 44 -9 95 l-7
92 83 0 c46 0 146 -7 223 -15z"/>
<path d="M583 4853 c-33 -6 -47 -28 -34 -52 11 -19 18 -20 124 -14 383 20 795
-220 974 -567 40 -78 67 -97 93 -65 11 13 7 28 -28 98 -142 283 -449 514 -782
588 -80 17 -282 25 -347 12z"/>
<path d="M6605 4783 c-225 -29 -461 -131 -749 -324 -204 -136 -245 -171 -230
-196 20 -32 42 -26 126 35 389 280 642 395 902 411 79 5 101 10 110 24 21 33
-4 52 -70 53 -32 1 -72 0 -89 -3z"/>
<path d="M712 4608 c-24 -24 -11 -45 47 -81 76 -48 151 -115 207 -189 48 -62
75 -72 97 -36 9 13 4 26 -19 59 -45 67 -152 168 -225 216 -71 46 -88 50 -107
31z"/>
<path d="M6562 4535 c-108 -33 -212 -80 -212 -98 0 -8 8 -21 18 -31 18 -15 23
-14 93 14 41 17 107 40 148 50 82 22 97 35 77 65 -18 28 -29 28 -124 0z"/>
<path d="M4441 4120 c-165 -78 -291 -294 -291 -498 0 -168 94 -320 224 -362
152 -49 372 133 451 373 34 104 33 214 -2 287 -11 25 -24 57 -27 72 -8 36 -87
115 -139 138 -65 30 -139 26 -216 -10z m-31 -335 c0 -33 -33 -51 -54 -29 -9 8
-16 22 -16 29 0 7 7 21 16 29 21 22 54 4 54 -29z m82 -206 c11 -6 26 -26 34
-45 42 -99 -101 -179 -160 -89 -53 80 41 180 126 134z"/>
<path d="M2713 4076 c-171 -55 -317 -313 -299 -529 14 -181 163 -342 316 -341
176 0 329 220 330 474 0 252 -175 452 -347 396z m-68 -336 c0 -18 -6 -26 -23
-28 -13 -2 -25 3 -28 12 -10 26 4 48 28 44 17 -2 23 -10 23 -28z m96 -140 c6
0 21 -12 34 -26 70 -76 -25 -192 -117 -143 -11 6 -26 26 -34 45 -12 30 -12 39
0 69 16 36 67 69 94 60 8 -3 18 -5 23 -5z"/>
</g>
</svg>
