<svg xmlns="http://www.w3.org/2000/svg" width="755" height="521" viewBox="0 0 755 521" version="1.1"><path d="M 51.500 14.581 C 48.750 14.783, 39.525 15.451, 31 16.064 C 22.475 16.676, 15.394 17.281, 15.266 17.407 C 14.860 17.802, 29.553 59.075, 33.395 68.336 C 44.823 95.877, 58.241 114.721, 75.928 128.066 C 89.260 138.126, 110.865 147.435, 130 151.364 C 148.024 155.065, 175.976 155.820, 194.774 153.112 C 198.685 152.549, 200.331 152.694, 201.146 153.676 C 201.751 154.404, 203.315 155, 204.622 155 C 205.930 155, 207 155.243, 207 155.539 C 207 155.836, 207.474 160.449, 208.053 165.789 C 211.139 194.244, 219.640 211.583, 235.622 222.016 C 249.947 231.367, 266.523 235.965, 293.500 238.071 C 314.923 239.742, 360.743 237.686, 408 232.931 C 473.059 226.386, 501.369 213.384, 515.628 183.500 C 519.232 175.947, 522.852 163.218, 523.440 156.032 C 524.038 148.711, 528.579 146.085, 539.217 146.909 C 545.041 147.360, 569.834 144.823, 582.833 142.445 C 601.211 139.085, 646.343 127.910, 657.500 123.958 C 694.664 110.794, 718.204 85.813, 722.973 54.477 C 724.118 46.959, 725.860 24.752, 725.357 24.108 C 724.276 22.728, 693.962 20.739, 673 20.673 C 651.656 20.606, 646.828 20.892, 635.519 22.892 C 619.683 25.694, 605.449 30.251, 592.931 36.526 C 575.608 45.210, 563.038 54.968, 536.554 80.291 C 529.778 86.770, 525.389 90.166, 522.783 90.947 C 518.165 92.330, 516.635 91.589, 517.446 88.361 C 518.648 83.570, 506.411 66.172, 494.885 56.287 C 477.372 41.268, 452.011 29.708, 424.088 24.018 C 393.514 17.787, 337.029 14.409, 307 17.015 C 264.504 20.703, 236.570 34.351, 225.670 56.750 C 224.532 59.088, 223.278 61, 222.883 61 C 222.488 61, 220.721 65.036, 218.957 69.968 C 216.196 77.688, 215.511 78.809, 214.036 78.019 C 213.094 77.515, 211.280 77.375, 210.005 77.709 C 208.506 78.101, 207.918 77.942, 208.341 77.258 C 209.277 75.743, 185.543 53.273, 173.289 44.072 C 145.861 23.478, 119.581 15.616, 74.841 14.621 C 64.753 14.396, 54.250 14.378, 51.500 14.581 M 317.004 24.495 C 315.658 26.118, 315.799 26.879, 318.914 34.750 L 320.992 40 316.954 40 C 314.733 40, 309.550 39.305, 305.435 38.455 C 301.321 37.605, 297.515 37.182, 296.977 37.514 C 295.584 38.375, 295.767 42.568, 297.250 43.761 C 299.231 45.355, 308.516 47, 315.530 47 C 321.394 47, 322.003 47.199, 322.432 49.250 C 323.062 52.264, 323.723 64, 323.263 64 C 323.063 64, 319.276 62.568, 314.848 60.819 C 306.538 57.535, 303.908 57.642, 303.189 61.294 C 302.769 63.425, 306.680 65.825, 315.836 69.057 C 321.820 71.169, 323.585 72.244, 324.007 74.031 C 324.768 77.252, 327.409 78.736, 329.416 77.070 C 330.287 76.347, 331 75.183, 331 74.483 C 331 73.528, 331.936 73.423, 334.750 74.062 C 342.096 75.729, 366.648 77.223, 375.750 76.556 C 384.595 75.909, 385 75.968, 385 77.904 C 385 79.018, 385.937 80.431, 387.083 81.045 C 388.745 81.934, 389.554 81.809, 391.083 80.425 C 392.137 79.471, 393 77.877, 393 76.884 C 393 75.595, 394.217 74.767, 397.250 73.996 C 413.738 69.801, 417.891 67.764, 416.635 64.490 C 415.626 61.861, 413.128 61.678, 406.703 63.763 C 403.291 64.870, 399.081 66.077, 397.348 66.446 C 394.262 67.102, 394.181 67.026, 393.532 62.808 C 393.167 60.439, 392.626 57.056, 392.331 55.292 L 391.793 52.084 400.147 51.792 L 408.500 51.500 408.500 48.514 C 408.500 46.617, 407.953 45.453, 407 45.323 C 406.175 45.210, 402.046 44.831, 397.824 44.481 L 390.147 43.843 388.052 36.945 C 385.805 29.547, 383.153 26.798, 380.436 29.053 C 378.607 30.571, 378.624 32.683, 380.511 38.030 C 381.342 40.385, 381.805 42.528, 381.541 42.793 C 381.276 43.057, 374.184 42.520, 365.780 41.600 C 357.376 40.679, 345.449 39.830, 339.276 39.713 L 328.051 39.500 327.396 36.500 C 327.036 34.850, 325.700 31.138, 324.426 28.250 C 321.998 22.746, 319.503 21.484, 317.004 24.495 M 58.323 35.696 C 55.022 36.339, 53.643 38.464, 54.946 40.899 C 55.967 42.806, 56.689 42.891, 67.265 42.339 C 85.349 41.395, 101.845 45.434, 120.554 55.387 C 140.481 65.987, 155.059 80.394, 164.687 99 C 168.736 106.824, 171.369 108.670, 173.986 105.517 C 175.096 104.180, 174.666 102.679, 171.179 95.719 C 156.986 67.385, 126.319 44.323, 93 36.930 C 85.034 35.162, 64.770 34.441, 58.323 35.696 M 660.500 42.653 C 637.953 45.622, 614.439 55.798, 585.593 75.071 C 565.157 88.724, 561.101 92.183, 562.607 94.671 C 564.557 97.892, 566.809 97.274, 575.244 91.203 C 614.086 63.249, 639.366 51.727, 665.395 50.113 C 673.294 49.624, 675.512 49.147, 676.390 47.750 C 678.479 44.426, 675.989 42.514, 669.396 42.379 C 666.153 42.313, 662.150 42.436, 660.500 42.653 M 330.600 56.250 C 330.969 61.337, 331.360 65.612, 331.468 65.749 C 332.986 67.674, 377.501 70.095, 383.535 68.581 C 386.275 67.893, 386.277 67.886, 385.639 61.030 C 384.763 51.600, 384.553 51.259, 379.175 50.552 C 365.414 48.742, 345.500 47.020, 338.214 47.011 L 329.928 47 330.600 56.250 M 71.200 60.200 C 68.813 62.587, 70.055 64.749, 75.872 68.340 C 83.534 73.070, 90.977 79.823, 96.643 87.186 C 101.365 93.323, 104.117 94.381, 106.299 90.899 C 108.461 87.448, 94.132 71.305, 81.825 63.327 C 74.762 58.748, 73.131 58.269, 71.200 60.200 M 656.234 67.539 C 645.352 70.772, 635 75.522, 635 77.282 C 635 78.057, 635.828 79.439, 636.839 80.355 C 638.565 81.916, 639.136 81.830, 646.089 78.960 C 650.165 77.278, 656.849 75.023, 660.941 73.950 C 669.093 71.812, 670.602 70.541, 668.590 67.506 C 666.754 64.735, 665.662 64.737, 656.234 67.539 M 445.124 108.522 C 433.314 114.020, 422.589 126.853, 417.940 141.050 C 414.507 151.531, 414.514 166.795, 417.954 175.500 C 421.197 183.706, 430.522 193.082, 437.308 194.961 C 453.370 199.408, 474.272 182.105, 482.520 157.534 C 485.902 147.459, 485.792 136.175, 482.240 128.934 C 481.008 126.423, 480 123.584, 480 122.624 C 480 120.047, 470.117 109.998, 465.500 107.879 C 459.677 105.207, 451.704 105.459, 445.124 108.522 M 273.500 112.933 C 263.893 115.248, 253.144 125.278, 247.475 137.215 C 234.469 164.603, 242.912 191.716, 266.891 199.559 C 271.342 201.015, 272.963 201.103, 277.335 200.124 C 287.937 197.752, 298.320 186.381, 303.015 172 C 306.418 161.579, 306.517 145.503, 303.236 136 C 297.639 119.783, 285.180 110.118, 273.500 112.933 M 435.571 139.571 C 433.577 141.565, 433.577 143.434, 435.569 145.427 C 436.754 146.611, 437.612 146.743, 439.069 145.963 C 441.228 144.807, 441.636 141.036, 439.800 139.200 C 438.219 137.619, 437.457 137.685, 435.571 139.571 M 259.389 145.430 C 258.393 148.025, 259.788 150.169, 262.246 149.820 C 263.898 149.585, 264.500 148.833, 264.500 147 C 264.500 145.167, 263.898 144.415, 262.246 144.180 C 260.893 143.988, 259.750 144.488, 259.389 145.430 M 268.500 160.716 C 265.500 161.442, 262.268 164.819, 261.692 167.829 C 261.044 171.221, 263.225 176.515, 265.850 177.920 C 274.012 182.288, 283.288 173.012, 278.920 164.850 C 278.049 163.222, 271.911 159.652, 270.782 160.116 C 270.627 160.180, 269.600 160.450, 268.500 160.716 M 437.589 165.077 C 433.103 170.408, 434.471 177.045, 440.580 179.598 C 445.410 181.616, 450.489 179.468, 452.549 174.536 C 456.562 164.933, 444.257 157.153, 437.589 165.077 M 377 243.543 C 368.475 244.237, 355.087 245.134, 347.250 245.537 C 339.413 245.940, 333 246.477, 333 246.730 C 333 246.984, 335.222 252.438, 337.937 258.851 C 342.803 270.343, 348.849 291.228, 351.029 304.077 C 351.986 309.716, 352.562 310.901, 355.065 312.380 C 356.671 313.328, 358.470 315.010, 359.062 316.116 C 360.093 318.042, 360.318 317.966, 364.385 314.314 C 366.720 312.216, 369.416 310.050, 370.375 309.500 C 371.589 308.804, 372.830 305.159, 374.462 297.500 C 378.858 276.870, 387.351 254.879, 394.641 245.250 L 397.102 242 394.801 242.140 C 393.535 242.217, 385.525 242.849, 377 243.543 M 337.500 317.488 C 334.750 318.234, 331.262 319.319, 329.750 319.898 L 327 320.950 327 332.886 L 327 344.822 331.316 346.911 C 339.813 351.024, 349.677 348.536, 354.809 340.985 C 359.792 333.651, 355.787 320.898, 347.400 317.394 C 343.487 315.759, 343.888 315.755, 337.500 317.488 M 372.367 318.882 C 367.563 321.866, 366 324.786, 366 330.772 C 366 340.900, 370.806 345.437, 381.450 345.357 C 386.064 345.322, 387.636 344.912, 388.450 343.532 C 389.028 342.553, 390.558 340.145, 391.852 338.181 C 393.868 335.120, 394.149 333.651, 393.823 327.879 C 393.305 318.713, 392.133 317.577, 382.819 317.218 C 376.967 316.992, 374.872 317.325, 372.367 318.882 M 493.896 363.994 C 492.910 365.048, 489.922 365.977, 486.146 366.404 C 480.825 367.006, 480 367.377, 480 369.166 C 480 370.840, 480.428 371.107, 482.250 370.568 C 483.488 370.202, 487.534 369.137, 491.243 368.201 C 494.952 367.266, 497.989 366.249, 497.993 365.941 C 497.997 365.634, 497.438 364.684, 496.750 363.831 C 495.626 362.436, 495.338 362.453, 493.896 363.994 M 244.171 370.825 C 242.684 375.787, 242.616 375.492, 245.250 375.547 C 246.488 375.573, 251.887 375.938, 257.250 376.358 L 267 377.121 267 373.721 L 267 370.321 257.593 369.165 C 252.419 368.529, 247.546 367.763, 246.764 367.463 C 245.779 367.085, 244.982 368.118, 244.171 370.825 M 387.223 375.557 C 383.648 378.060, 384.399 380, 388.941 380 C 393.457 380, 394.102 379.391, 392.915 376.250 C 391.916 373.607, 390.289 373.409, 387.223 375.557 M 321.707 378.764 C 320.721 380.680, 320.115 382.449, 320.361 382.694 C 320.606 382.939, 323.983 382.827, 327.864 382.445 L 334.922 381.749 333.453 378.909 C 332.510 377.085, 331.455 376.272, 330.505 376.637 C 329.691 376.949, 327.782 376.771, 326.263 376.242 C 323.727 375.359, 323.352 375.566, 321.707 378.764 M 392.874 387.704 L 390.247 388.109 392.705 395.805 C 397.381 410.442, 401.877 427.908, 403.071 436.072 C 404.299 444.471, 405.236 444.871, 406.414 437.500 C 407.237 432.345, 405.812 421.305, 401.865 402.250 C 399.331 390.022, 398.387 387.030, 397.103 387.150 C 396.221 387.232, 394.318 387.482, 392.874 387.704 M 330.739 390.027 C 326.152 390.834, 325.360 391.524, 326.897 393.375 C 327.830 394.500, 327.033 397.915, 323.101 409.649 C 318.404 423.662, 313 445.181, 313 449.870 C 313 452.908, 315.400 452.502, 318.380 448.960 C 321.840 444.848, 325.077 434.092, 329.502 412 C 331.540 401.825, 333.648 392.674, 334.185 391.664 C 335.434 389.317, 335.255 389.232, 330.739 390.027" stroke="none" fill="#8be363" fill-rule="evenodd"/><path d="M 47.500 6.703 C 28.489 7.731, 7.429 10.143, 6.132 11.439 C 4.567 13.004, 4.028 11.018, 14.558 42.500 C 32.689 96.709, 43.033 116.232, 64.662 137.070 C 82.950 154.689, 102.315 164.851, 130.163 171.444 C 145.820 175.150, 158.465 176.400, 180.824 176.452 L 201.148 176.500 204.487 189.500 C 209.762 210.036, 213.638 218.619, 222.543 229.487 C 229.150 237.550, 244.427 247.467, 256.984 251.844 L 260.005 252.898 255.657 259.199 C 241.473 279.754, 228.991 309.074, 229.007 321.802 C 229.011 325.211, 230.004 330.418, 231.479 334.764 C 234.400 343.371, 235.378 345.337, 239.101 350.088 L 241.912 353.676 238.889 361.462 C 237.226 365.744, 233.162 379.204, 229.859 391.374 C 219.899 428.062, 214.296 437.479, 185.083 466.628 C 175.687 476.003, 168 484.390, 168 485.265 C 168 486.854, 170.536 489.997, 171.821 490.003 C 172.195 490.005, 172.533 491.569, 172.574 493.480 C 172.647 496.879, 174.857 500.318, 178.077 502.041 C 178.957 502.512, 186.162 504.283, 194.089 505.977 C 202.015 507.670, 209.400 509.306, 210.500 509.612 C 211.600 509.918, 236.125 510.326, 265 510.521 C 293.875 510.715, 331.450 511.464, 348.500 512.187 C 388.527 513.882, 436.246 513.875, 450 512.171 C 455.775 511.455, 466.125 509.940, 473 508.805 C 487.021 506.488, 503.420 506.034, 524.007 507.390 C 535.304 508.134, 538.888 508.001, 545.922 506.576 C 565.135 502.683, 567.535 497.931, 560.985 476.745 C 559.243 471.110, 553.644 456.150, 548.543 443.500 C 543.442 430.850, 536.708 413.075, 533.579 404 C 529.868 393.239, 523.945 379.451, 516.547 364.356 C 510.309 351.628, 504.923 339.927, 504.578 338.355 C 504.108 336.215, 504.922 333.486, 507.817 327.499 C 513.067 316.638, 514.407 310.470, 514.337 297.500 C 514.252 281.898, 511.064 270.120, 500.486 246.331 C 496.814 238.074, 497.378 236.465, 505.742 231.331 C 523.778 220.261, 535.106 204.456, 541.964 180.795 C 543.603 175.141, 545.622 170.018, 546.451 169.412 C 547.280 168.806, 553.790 168.015, 560.918 167.654 C 579.287 166.725, 604.573 162.193, 636.195 154.163 C 665.958 146.605, 678.767 142.272, 692.355 135.166 C 710.732 125.555, 726.765 109.358, 735.578 91.500 C 741.145 80.221, 743.581 70.610, 745.495 52.388 C 748.400 24.727, 747.902 23.284, 733.500 17.608 C 722.124 13.124, 660.318 11.040, 638.500 14.405 C 600.069 20.331, 576.277 32.389, 543.610 62.494 L 530.721 74.373 527.696 70.437 C 522.149 63.218, 507.587 49.531, 500.320 44.707 C 464.163 20.701, 408.928 8.619, 335 8.546 C 311.472 8.523, 303.212 8.878, 294.196 10.301 C 255.158 16.462, 234.226 27.931, 219.108 51.444 C 216.299 55.813, 214 60.071, 214 60.907 C 214 61.836, 212.158 60.652, 209.250 57.855 C 187.597 37.024, 163.057 22.631, 136.500 15.185 C 108.126 7.231, 82.640 4.802, 47.500 6.703 M 51.500 14.581 C 48.750 14.783, 39.525 15.451, 31 16.064 C 22.475 16.676, 15.394 17.281, 15.266 17.407 C 14.860 17.802, 29.553 59.075, 33.395 68.336 C 44.823 95.877, 58.241 114.721, 75.928 128.066 C 89.260 138.126, 110.865 147.435, 130 151.364 C 148.024 155.065, 175.976 155.820, 194.774 153.112 C 198.685 152.549, 200.331 152.694, 201.146 153.676 C 201.751 154.404, 203.315 155, 204.622 155 C 205.930 155, 207 155.243, 207 155.539 C 207 155.836, 207.474 160.449, 208.053 165.789 C 211.139 194.244, 219.640 211.583, 235.622 222.016 C 249.947 231.367, 266.523 235.965, 293.500 238.071 C 314.923 239.742, 360.743 237.686, 408 232.931 C 473.059 226.386, 501.369 213.384, 515.628 183.500 C 519.232 175.947, 522.852 163.218, 523.440 156.032 C 524.038 148.711, 528.579 146.085, 539.217 146.909 C 545.041 147.360, 569.834 144.823, 582.833 142.445 C 601.211 139.085, 646.343 127.910, 657.500 123.958 C 694.664 110.794, 718.204 85.813, 722.973 54.477 C 724.118 46.959, 725.860 24.752, 725.357 24.108 C 724.276 22.728, 693.962 20.739, 673 20.673 C 651.656 20.606, 646.828 20.892, 635.519 22.892 C 619.683 25.694, 605.449 30.251, 592.931 36.526 C 575.608 45.210, 563.038 54.968, 536.554 80.291 C 529.778 86.770, 525.389 90.166, 522.783 90.947 C 518.165 92.330, 516.635 91.589, 517.446 88.361 C 518.648 83.570, 506.411 66.172, 494.885 56.287 C 477.372 41.268, 452.011 29.708, 424.088 24.018 C 393.514 17.787, 337.029 14.409, 307 17.015 C 264.504 20.703, 236.570 34.351, 225.670 56.750 C 224.532 59.088, 223.278 61, 222.883 61 C 222.488 61, 220.721 65.036, 218.957 69.968 C 216.196 77.688, 215.511 78.809, 214.036 78.019 C 213.094 77.515, 211.280 77.375, 210.005 77.709 C 208.506 78.101, 207.918 77.942, 208.341 77.258 C 209.277 75.743, 185.543 53.273, 173.289 44.072 C 145.861 23.478, 119.581 15.616, 74.841 14.621 C 64.753 14.396, 54.250 14.378, 51.500 14.581 M 317.004 24.495 C 315.658 26.118, 315.799 26.879, 318.914 34.750 L 320.992 40 316.954 40 C 314.733 40, 309.550 39.305, 305.435 38.455 C 301.321 37.605, 297.515 37.182, 296.977 37.514 C 295.584 38.375, 295.767 42.568, 297.250 43.761 C 299.231 45.355, 308.516 47, 315.530 47 C 321.394 47, 322.003 47.199, 322.432 49.250 C 323.062 52.264, 323.723 64, 323.263 64 C 323.063 64, 319.276 62.568, 314.848 60.819 C 306.538 57.535, 303.908 57.642, 303.189 61.294 C 302.769 63.425, 306.680 65.825, 315.836 69.057 C 321.820 71.169, 323.585 72.244, 324.007 74.031 C 324.768 77.252, 327.409 78.736, 329.416 77.070 C 330.287 76.347, 331 75.183, 331 74.483 C 331 73.528, 331.936 73.423, 334.750 74.062 C 342.096 75.729, 366.648 77.223, 375.750 76.556 C 384.595 75.909, 385 75.968, 385 77.904 C 385 79.018, 385.937 80.431, 387.083 81.045 C 388.745 81.934, 389.554 81.809, 391.083 80.425 C 392.137 79.471, 393 77.877, 393 76.884 C 393 75.595, 394.217 74.767, 397.250 73.996 C 413.738 69.801, 417.891 67.764, 416.635 64.490 C 415.626 61.861, 413.128 61.678, 406.703 63.763 C 403.291 64.870, 399.081 66.077, 397.348 66.446 C 394.262 67.102, 394.181 67.026, 393.532 62.808 C 393.167 60.439, 392.626 57.056, 392.331 55.292 L 391.793 52.084 400.147 51.792 L 408.500 51.500 408.500 48.514 C 408.500 46.617, 407.953 45.453, 407 45.323 C 406.175 45.210, 402.046 44.831, 397.824 44.481 L 390.147 43.843 388.052 36.945 C 385.805 29.547, 383.153 26.798, 380.436 29.053 C 378.607 30.571, 378.624 32.683, 380.511 38.030 C 381.342 40.385, 381.805 42.528, 381.541 42.793 C 381.276 43.057, 374.184 42.520, 365.780 41.600 C 357.376 40.679, 345.449 39.830, 339.276 39.713 L 328.051 39.500 327.396 36.500 C 327.036 34.850, 325.700 31.138, 324.426 28.250 C 321.998 22.746, 319.503 21.484, 317.004 24.495 M 58.323 35.696 C 55.022 36.339, 53.643 38.464, 54.946 40.899 C 55.967 42.806, 56.689 42.891, 67.265 42.339 C 85.349 41.395, 101.845 45.434, 120.554 55.387 C 140.481 65.987, 155.059 80.394, 164.687 99 C 168.736 106.824, 171.369 108.670, 173.986 105.517 C 175.096 104.180, 174.666 102.679, 171.179 95.719 C 156.986 67.385, 126.319 44.323, 93 36.930 C 85.034 35.162, 64.770 34.441, 58.323 35.696 M 660.500 42.653 C 637.953 45.622, 614.439 55.798, 585.593 75.071 C 565.157 88.724, 561.101 92.183, 562.607 94.671 C 564.557 97.892, 566.809 97.274, 575.244 91.203 C 614.086 63.249, 639.366 51.727, 665.395 50.113 C 673.294 49.624, 675.512 49.147, 676.390 47.750 C 678.479 44.426, 675.989 42.514, 669.396 42.379 C 666.153 42.313, 662.150 42.436, 660.500 42.653 M 330.600 56.250 C 330.969 61.337, 331.360 65.612, 331.468 65.749 C 332.986 67.674, 377.501 70.095, 383.535 68.581 C 386.275 67.893, 386.277 67.886, 385.639 61.030 C 384.763 51.600, 384.553 51.259, 379.175 50.552 C 365.414 48.742, 345.500 47.020, 338.214 47.011 L 329.928 47 330.600 56.250 M 71.200 60.200 C 68.813 62.587, 70.055 64.749, 75.872 68.340 C 83.534 73.070, 90.977 79.823, 96.643 87.186 C 101.365 93.323, 104.117 94.381, 106.299 90.899 C 108.461 87.448, 94.132 71.305, 81.825 63.327 C 74.762 58.748, 73.131 58.269, 71.200 60.200 M 656.234 67.539 C 645.352 70.772, 635 75.522, 635 77.282 C 635 78.057, 635.828 79.439, 636.839 80.355 C 638.565 81.916, 639.136 81.830, 646.089 78.960 C 650.165 77.278, 656.849 75.023, 660.941 73.950 C 669.093 71.812, 670.602 70.541, 668.590 67.506 C 666.754 64.735, 665.662 64.737, 656.234 67.539 M 445.124 108.522 C 433.314 114.020, 422.589 126.853, 417.940 141.050 C 414.507 151.531, 414.514 166.795, 417.954 175.500 C 421.197 183.706, 430.522 193.082, 437.308 194.961 C 453.370 199.408, 474.272 182.105, 482.520 157.534 C 485.902 147.459, 485.792 136.175, 482.240 128.934 C 481.008 126.423, 480 123.584, 480 122.624 C 480 120.047, 470.117 109.998, 465.500 107.879 C 459.677 105.207, 451.704 105.459, 445.124 108.522 M 273.500 112.933 C 263.893 115.248, 253.144 125.278, 247.475 137.215 C 234.469 164.603, 242.912 191.716, 266.891 199.559 C 271.342 201.015, 272.963 201.103, 277.335 200.124 C 287.937 197.752, 298.320 186.381, 303.015 172 C 306.418 161.579, 306.517 145.503, 303.236 136 C 297.639 119.783, 285.180 110.118, 273.500 112.933 M 435.571 139.571 C 433.577 141.565, 433.577 143.434, 435.569 145.427 C 436.754 146.611, 437.612 146.743, 439.069 145.963 C 441.228 144.807, 441.636 141.036, 439.800 139.200 C 438.219 137.619, 437.457 137.685, 435.571 139.571 M 259.389 145.430 C 258.393 148.025, 259.788 150.169, 262.246 149.820 C 263.898 149.585, 264.500 148.833, 264.500 147 C 264.500 145.167, 263.898 144.415, 262.246 144.180 C 260.893 143.988, 259.750 144.488, 259.389 145.430 M 268.500 160.716 C 265.500 161.442, 262.268 164.819, 261.692 167.829 C 261.044 171.221, 263.225 176.515, 265.850 177.920 C 274.012 182.288, 283.288 173.012, 278.920 164.850 C 278.049 163.222, 271.911 159.652, 270.782 160.116 C 270.627 160.180, 269.600 160.450, 268.500 160.716 M 437.589 165.077 C 433.103 170.408, 434.471 177.045, 440.580 179.598 C 445.410 181.616, 450.489 179.468, 452.549 174.536 C 456.562 164.933, 444.257 157.153, 437.589 165.077 M 377 243.543 C 368.475 244.237, 355.087 245.134, 347.250 245.537 C 339.413 245.940, 333 246.477, 333 246.730 C 333 246.984, 335.222 252.438, 337.937 258.851 C 342.803 270.343, 348.849 291.228, 351.029 304.077 C 351.986 309.716, 352.562 310.901, 355.065 312.380 C 356.671 313.328, 358.470 315.010, 359.062 316.116 C 360.093 318.042, 360.318 317.966, 364.385 314.314 C 366.720 312.216, 369.416 310.050, 370.375 309.500 C 371.589 308.804, 372.830 305.159, 374.462 297.500 C 378.858 276.870, 387.351 254.879, 394.641 245.250 L 397.102 242 394.801 242.140 C 393.535 242.217, 385.525 242.849, 377 243.543 M 337.500 317.488 C 334.750 318.234, 331.262 319.319, 329.750 319.898 L 327 320.950 327 332.886 L 327 344.822 331.316 346.911 C 339.813 351.024, 349.677 348.536, 354.809 340.985 C 359.792 333.651, 355.787 320.898, 347.400 317.394 C 343.487 315.759, 343.888 315.755, 337.500 317.488 M 372.367 318.882 C 367.563 321.866, 366 324.786, 366 330.772 C 366 340.900, 370.806 345.437, 381.450 345.357 C 386.064 345.322, 387.636 344.912, 388.450 343.532 C 389.028 342.553, 390.558 340.145, 391.852 338.181 C 393.868 335.120, 394.149 333.651, 393.823 327.879 C 393.305 318.713, 392.133 317.577, 382.819 317.218 C 376.967 316.992, 374.872 317.325, 372.367 318.882 M 493.896 363.994 C 492.910 365.048, 489.922 365.977, 486.146 366.404 C 480.825 367.006, 480 367.377, 480 369.166 C 480 370.840, 480.428 371.107, 482.250 370.568 C 483.488 370.202, 487.534 369.137, 491.243 368.201 C 494.952 367.266, 497.989 366.249, 497.993 365.941 C 497.997 365.634, 497.438 364.684, 496.750 363.831 C 495.626 362.436, 495.338 362.453, 493.896 363.994 M 244.171 370.825 C 242.684 375.787, 242.616 375.492, 245.250 375.547 C 246.488 375.573, 251.887 375.938, 257.250 376.358 L 267 377.121 267 373.721 L 267 370.321 257.593 369.165 C 252.419 368.529, 247.546 367.763, 246.764 367.463 C 245.779 367.085, 244.982 368.118, 244.171 370.825 M 387.223 375.557 C 383.648 378.060, 384.399 380, 388.941 380 C 393.457 380, 394.102 379.391, 392.915 376.250 C 391.916 373.607, 390.289 373.409, 387.223 375.557 M 321.707 378.764 C 320.721 380.680, 320.115 382.449, 320.361 382.694 C 320.606 382.939, 323.983 382.827, 327.864 382.445 L 334.922 381.749 333.453 378.909 C 332.510 377.085, 331.455 376.272, 330.505 376.637 C 329.691 376.949, 327.782 376.771, 326.263 376.242 C 323.727 375.359, 323.352 375.566, 321.707 378.764 M 392.874 387.704 L 390.247 388.109 392.705 395.805 C 397.381 410.442, 401.877 427.908, 403.071 436.072 C 404.299 444.471, 405.236 444.871, 406.414 437.500 C 407.237 432.345, 405.812 421.305, 401.865 402.250 C 399.331 390.022, 398.387 387.030, 397.103 387.150 C 396.221 387.232, 394.318 387.482, 392.874 387.704 M 330.739 390.027 C 326.152 390.834, 325.360 391.524, 326.897 393.375 C 327.830 394.500, 327.033 397.915, 323.101 409.649 C 318.404 423.662, 313 445.181, 313 449.870 C 313 452.908, 315.400 452.502, 318.380 448.960 C 321.840 444.848, 325.077 434.092, 329.502 412 C 331.540 401.825, 333.648 392.674, 334.185 391.664 C 335.434 389.317, 335.255 389.232, 330.739 390.027" stroke="none" fill="#35250f" fill-rule="evenodd"/></svg>