<svg xmlns="http://www.w3.org/2000/svg" width="2048" height="2048" viewBox="0 0 2048 2048" version="1.1"><path d="" stroke="none" fill="#0c1404" fill-rule="evenodd"/><path d="M 1078.917 197.369 C 1078.688 197.572, 1073.325 198.018, 1067 198.360 C 1054.138 199.056, 1035.329 200.729, 1030 201.652 C 1026.385 202.278, 1021 204.932, 1021 206.087 C 1021 206.448, 1014.587 207.060, 1006.750 207.448 C 998.913 207.835, 991.150 208.314, 989.500 208.511 C 987.850 208.709, 984.250 209.146, 981.500 209.484 C 978.750 209.821, 969.300 211.423, 960.500 213.043 C 951.700 214.664, 937.750 217.117, 929.500 218.493 C 921.250 219.869, 908.200 222.119, 900.500 223.491 C 892.800 224.864, 884.475 226.244, 882 226.558 C 868.146 228.315, 850.643 231.607, 834.626 235.467 C 824.657 237.869, 806.600 241.946, 794.500 244.527 C 762.791 251.290, 755.102 253.199, 719.731 263.093 C 641.123 285.082, 631.545 288.648, 569.500 319.020 C 541.729 332.614, 506.046 357.298, 492.439 372.328 C 489.366 375.723, 483.892 383.213, 480.275 388.973 C 476.658 394.733, 471.616 402.158, 469.070 405.473 C 462.336 414.243, 458.664 420.320, 453.643 431.007 C 447.534 444.008, 445.993 449.029, 444.905 459.474 C 443.666 471.365, 444.414 477.170, 449.034 491.532 C 454.531 508.622, 458.838 519.111, 461.416 521.689 C 462.837 523.110, 464 524.627, 464 525.060 C 464 525.493, 462.472 527.849, 460.604 530.296 C 453.359 539.787, 434.019 569.057, 427.675 580.132 C 420.720 592.272, 415.712 603.185, 414.521 608.794 C 412.379 618.885, 421.301 632.063, 437.962 643.416 C 447.124 649.658, 470.132 662.292, 476.658 664.663 C 483.770 667.247, 508.946 671.619, 511.366 670.690 C 514.215 669.597, 513.195 667.861, 505.250 660.280 L 497.500 652.885 505.979 657.179 C 513.762 661.120, 515.243 661.515, 524.007 661.986 L 533.556 662.500 538.664 666.903 C 543.693 671.239, 543.782 671.415, 544.468 678.372 C 545.446 688.297, 546.171 689.354, 551.584 688.743 C 563.600 687.389, 564.347 678.729, 553.440 667.208 C 549.969 663.542, 548.770 661.260, 549.935 660.540 C 550.452 660.220, 560.241 658.840, 571.688 657.473 C 604.529 653.549, 616.812 650.240, 657 634.487 C 706.487 615.090, 742.625 597.174, 774.500 576.236 C 793.708 563.618, 814.199 547.548, 828.443 533.931 C 839.171 523.675, 844.014 519.466, 856.812 509.277 C 866.050 501.923, 905.569 463.114, 908.725 458.296 C 913.213 451.447, 904.974 456.329, 892.790 467.739 C 888.230 472.008, 881.800 477.748, 878.500 480.493 C 875.200 483.239, 869.575 488.017, 866 491.111 C 862.425 494.206, 854.550 500.233, 848.500 504.505 C 838.283 511.720, 830.326 517.892, 825.500 522.346 C 808.048 538.456, 769.062 564.095, 740 578.575 C 703.845 596.589, 685.106 604.246, 639.500 619.641 C 604.679 631.396, 594.233 633.595, 564 635.538 C 558.775 635.874, 553.702 636.374, 552.726 636.649 C 551.077 637.115, 550.992 636.315, 551.511 625.325 C 553 593.794, 556.980 573.973, 566.537 550.500 C 569.502 543.220, 591.502 498.863, 595.023 493.069 C 595.835 491.732, 600.586 484.757, 605.579 477.569 C 614.234 465.111, 624 449.681, 624 448.465 C 624 448.151, 626.472 444.206, 629.493 439.698 C 634.379 432.404, 659.976 405.018, 668.500 397.963 C 687.082 382.584, 694.797 379.009, 710.500 378.501 C 724.411 378.050, 745.151 381.568, 747.750 384.819 C 748.846 386.190, 749 386.116, 749 384.214 C 749 383.022, 747.987 381.391, 746.750 380.589 C 740.624 376.622, 713.692 372.285, 703.157 373.568 C 694.300 374.647, 685.920 377.606, 678.936 382.119 C 669.057 388.505, 657.190 398.101, 649.833 405.655 C 646.166 409.420, 639.191 416.357, 634.333 421.072 C 625.138 429.996, 624.080 431.373, 614.415 447 C 611.183 452.225, 605.040 461.101, 600.764 466.724 C 596.488 472.347, 590.600 480.672, 587.681 485.224 C 580.734 496.055, 560.271 535.973, 555.662 547.684 C 546.234 571.636, 541.695 593.670, 540.454 621.500 C 540.033 630.964, 539.364 636.771, 538.643 637.235 C 538.014 637.639, 534.277 637.976, 530.337 637.985 C 523.197 638, 523.157 637.985, 517.178 632.989 C 508.741 625.940, 494.570 617.247, 488.646 615.488 C 482.700 613.722, 471.664 613.544, 466.899 615.136 C 465.030 615.762, 461.177 617.996, 458.339 620.102 L 453.177 623.931 449.339 621.334 C 447.227 619.905, 443.588 617.425, 441.251 615.821 L 437.002 612.906 443.591 600.203 C 449.716 588.393, 457.174 575.306, 462.512 567 C 463.750 565.075, 466.904 560.125, 469.522 556 C 480.380 538.892, 493.764 520.127, 503.402 508.500 C 520.679 487.656, 533.075 466.784, 533.354 458.066 C 533.498 453.573, 533.446 453.495, 530.112 453.176 C 523.934 452.586, 522.182 453.718, 516.021 462.276 C 507.531 474.071, 503.180 479.642, 497.500 485.985 C 494.750 489.056, 489.575 494.909, 486 498.991 C 482.425 503.072, 478.375 507.695, 477 509.262 L 474.500 512.112 468.503 494.806 C 462.731 478.146, 462.507 477.127, 462.503 467.500 L 462.500 457.500 468.774 445.478 C 472.225 438.866, 478.632 428.630, 483.011 422.733 C 487.390 416.835, 493.909 407.332, 497.497 401.615 C 505.457 388.935, 511.808 382.774, 534.342 365.870 C 555.609 349.918, 565.393 344.114, 600.316 326.736 C 646.730 303.640, 657.207 299.711, 726.486 279.414 C 761.294 269.216, 762.688 268.858, 799.790 260.537 C 815.899 256.924, 835.924 252.207, 844.290 250.055 C 852.655 247.902, 867.150 244.997, 876.500 243.598 C 885.850 242.200, 900.700 239.674, 909.500 237.984 C 918.300 236.294, 933.825 233.374, 944 231.495 C 954.175 229.615, 966.775 227.195, 972 226.118 C 985.849 223.261, 994.823 222.179, 1010 221.535 C 1026.097 220.853, 1037.303 220.096, 1041.756 219.391 C 1081.180 213.146, 1097.955 212.197, 1127.687 214.532 C 1145.284 215.914, 1148.913 216.744, 1154.089 220.571 C 1155.965 221.959, 1161.218 224.854, 1165.762 227.006 C 1180.243 233.863, 1191.859 242.063, 1212.486 259.988 C 1220.502 266.955, 1232.737 279.668, 1238.481 287 C 1245.765 296.299, 1249.662 300.696, 1262.424 314.018 C 1281.426 333.854, 1296.993 352.795, 1305.147 366 C 1312.432 377.797, 1317.179 406.900, 1315.261 428 L 1314.760 433.500 1311.963 424 C 1306.319 404.830, 1302.203 391.438, 1301.208 389 C 1300.646 387.625, 1299.191 384.041, 1297.973 381.035 C 1295.082 373.898, 1287.805 362.914, 1283.413 359.058 C 1280.293 356.319, 1279.254 356, 1273.433 356 C 1261.743 356, 1255.257 360.931, 1252.430 371.968 C 1250.464 379.640, 1250.909 385.012, 1254.552 397.581 C 1256.984 405.975, 1258.404 409, 1259.911 409 C 1260.690 409, 1266.879 399.020, 1268.865 394.564 C 1269.616 392.879, 1270.769 389.479, 1271.428 387.009 L 1272.626 382.517 1275.213 388.009 C 1280.755 399.774, 1297.887 461.496, 1301.441 482.500 C 1303.920 497.150, 1305.897 519.303, 1306.394 538 C 1306.762 551.820, 1306.373 560.127, 1304.548 577.500 C 1303.276 589.600, 1301.949 607.150, 1301.599 616.500 C 1300.180 654.398, 1293.179 693.587, 1283.281 719.027 L 1280.690 725.686 1269.967 714.878 L 1259.245 704.070 1261.023 695.285 C 1262 690.453, 1263.097 683.800, 1263.459 680.500 C 1263.821 677.200, 1264.557 671.350, 1265.095 667.500 C 1266.869 654.809, 1266.364 632.519, 1264.006 619.402 C 1256.515 577.729, 1245.739 553.344, 1218.974 517.500 C 1195.257 485.738, 1179.999 471.873, 1150.500 455.272 C 1120.425 438.348, 1088.597 427.165, 1060 423.476 C 1056.975 423.085, 1053.600 422.597, 1052.500 422.391 C 1042.642 420.541, 997.574 419.801, 979.500 421.193 C 968.164 422.066, 953.100 424.736, 927 430.501 C 892.185 438.191, 882.795 442.293, 869.336 455.692 C 864.751 460.256, 861 464.667, 861 465.495 C 861 466.323, 861.218 467, 861.485 467 C 861.752 467, 871.089 462.521, 882.235 457.047 C 903.857 446.427, 906.408 445.598, 942 437.627 C 964.080 432.682, 975.878 431.145, 997.500 430.396 C 1031.615 429.215, 1070.575 434.078, 1096 442.692 C 1120.075 450.848, 1152.499 467.517, 1170.500 480.991 C 1189.359 495.107, 1207.476 516.671, 1228.546 550.081 C 1241.067 569.935, 1251.506 602.781, 1255.058 633.500 C 1256.076 642.302, 1255.739 664.007, 1254.483 670.500 C 1254.271 671.600, 1253.837 675.425, 1253.520 679 C 1252.954 685.375, 1251.323 696.036, 1250.459 699 C 1250.126 700.147, 1248.314 700.516, 1242.761 700.568 C 1230.425 700.683, 1220.664 703.844, 1213.661 709.993 C 1211.794 711.632, 1208.350 716.692, 1206.008 721.236 C 1203.666 725.781, 1199.107 733.013, 1195.878 737.308 C 1192.648 741.602, 1188.832 747.677, 1187.398 750.808 C 1182.624 761.231, 1177.904 773.098, 1175.854 779.837 C 1174.739 783.501, 1172.931 788.046, 1171.837 789.936 C 1169.171 794.541, 1170.041 798.634, 1174.768 803.727 C 1178.137 807.358, 1179.230 807.870, 1186 808.989 C 1197.487 810.888, 1210.205 813.925, 1211.633 815.110 C 1212.445 815.784, 1212.692 817.292, 1212.306 819.221 C 1211.837 821.564, 1212.020 822.161, 1213.098 821.805 C 1213.869 821.550, 1214.967 820.414, 1215.538 819.280 C 1216.457 817.454, 1216.795 817.377, 1218.479 818.608 C 1222.793 821.763, 1226.375 818.998, 1227.550 811.610 C 1228.090 808.210, 1227.814 807.481, 1225.096 805.139 L 1222.033 802.500 1231.408 783.087 C 1237.269 770.951, 1241.618 760.456, 1243.010 755.087 C 1246.481 741.698, 1252.009 725, 1252.970 725 C 1254.928 725, 1267.575 736.892, 1273.632 744.430 C 1287.395 761.555, 1292.970 778.291, 1292.978 802.500 C 1292.985 825.418, 1289.846 845.883, 1281.006 880.543 C 1276.351 898.796, 1275.269 902.297, 1270.818 913.500 C 1263.664 931.509, 1252.209 946.258, 1234.500 960.262 C 1209.519 980.016, 1182.889 988.632, 1157.500 985.174 C 1150.619 984.237, 1131.369 979.430, 1130.057 978.321 C 1129.813 978.115, 1131.349 976.271, 1133.469 974.223 C 1139.012 968.872, 1146.897 950.500, 1145.364 946.507 C 1144.796 945.026, 1142.296 944.225, 1139.875 944.747 C 1138.050 945.142, 1128.535 965.371, 1127.497 971.065 C 1126.292 977.675, 1126.107 977.743, 1116.293 975.214 C 1111.457 973.968, 1106.938 972.960, 1106.250 972.974 C 1103.239 973.037, 1105.659 976.446, 1114.916 985.177 C 1125.719 995.369, 1132.987 999.662, 1144 1002.358 C 1154.662 1004.968, 1157.932 1005.331, 1170.500 1005.301 C 1201.191 1005.227, 1229.348 992.384, 1255.568 966.500 C 1276.667 945.671, 1284.367 931.326, 1293.948 895 C 1299.460 874.100, 1299.629 873.376, 1302.483 858.500 C 1306.983 835.041, 1308.286 823.185, 1308.362 805 C 1308.439 786.757, 1307.315 777.347, 1303.770 766.524 C 1301.009 758.098, 1296.421 748.542, 1291.781 741.553 L 1287.833 735.607 1292.806 725.053 C 1301.756 706.063, 1304.243 698.790, 1310.948 672 C 1313.220 662.925, 1315.485 653.925, 1315.982 652 C 1317.449 646.320, 1319.840 628.465, 1321.005 614.500 C 1321.602 607.350, 1322.281 600.375, 1322.514 599 C 1326.027 578.319, 1328.329 557.428, 1328.961 540.500 C 1329.476 526.702, 1330.175 519.260, 1331.217 516.500 C 1335.545 505.030, 1337.722 484.260, 1337.818 453.507 C 1337.857 440.861, 1338.192 425.069, 1338.561 418.412 C 1339.306 404.992, 1337.345 389.385, 1332.917 373.500 C 1330.637 365.318, 1322.178 349.008, 1316.891 342.599 C 1316.392 341.995, 1313.186 337.900, 1309.767 333.500 C 1302.244 323.819, 1297.510 318.644, 1275.458 296 C 1266.086 286.375, 1255.963 275.575, 1252.964 272 C 1242.396 259.404, 1230.257 247.027, 1222.793 241.237 C 1220.852 239.732, 1216.393 236.102, 1212.882 233.171 C 1195.943 219.026, 1183.700 211.117, 1170.420 205.740 C 1163.409 202.901, 1159.500 202.248, 1145 201.492 C 1135.094 200.975, 1130.201 200.551, 1122 199.500 C 1106.336 197.493, 1100.117 197, 1090.443 197 C 1084.333 197, 1079.146 197.166, 1078.917 197.369 M 947.500 441.879 C 941.220 444.837, 929.508 453.523, 921.355 461.268 C 913.849 468.398, 901.661 483.776, 897.222 491.718 C 895.071 495.566, 894.998 496.062, 896.498 496.638 C 898.711 497.487, 920.422 482.765, 933.149 471.786 C 938.431 467.228, 944.786 462.044, 947.271 460.264 L 951.788 457.028 953.206 459.264 C 955.909 463.528, 964.156 480.129, 972.402 497.906 C 976.960 507.732, 983.300 520.435, 986.491 526.136 C 989.682 531.836, 993.412 538.525, 994.780 541 C 996.148 543.475, 997.600 545.950, 998.006 546.500 C 998.412 547.050, 1002.485 554.700, 1007.058 563.500 C 1015.774 580.278, 1030.638 607.984, 1035.490 616.500 C 1038.980 622.625, 1048.366 636.397, 1051.899 640.576 C 1053.330 642.268, 1055.850 645.414, 1057.500 647.566 C 1059.150 649.717, 1062.109 653.283, 1064.075 655.489 C 1067.852 659.728, 1078.190 673.233, 1083.908 681.399 C 1086.746 685.452, 1087.122 686.576, 1086.158 688.119 C 1084.401 690.933, 1084.737 692.218, 1087.039 691.488 C 1088.854 690.912, 1089.004 691.151, 1088.401 693.670 C 1086.905 699.923, 1082.801 709.476, 1073.221 729.008 C 1067.693 740.278, 1060.362 756.475, 1056.930 765 C 1050.634 780.635, 1044.528 791.564, 1040.782 793.904 C 1039.106 794.951, 1038.491 794.920, 1037.298 793.727 C 1035.048 791.477, 1034.026 785.074, 1034.894 778.677 C 1035.329 775.474, 1035.778 767.149, 1035.891 760.177 C 1036.168 743.144, 1033.884 731.896, 1025.701 710 C 1021.654 699.171, 1010.740 666.037, 1002.480 639.500 C 994.995 615.458, 990.380 602.142, 986.188 592.500 C 981.131 580.867, 980.427 580, 976.040 580 C 971.609 580, 970.035 581.573, 967.533 588.500 C 966.540 591.250, 963.908 596.200, 961.685 599.500 C 953.807 611.194, 943.977 628.155, 944.545 629.073 C 945.292 630.281, 947.730 628.949, 955.278 623.209 C 963.632 616.855, 967.619 612.683, 972.083 605.623 L 975.914 599.565 977.423 603.032 C 978.834 606.272, 988.335 635.130, 999.801 671 C 1002.526 679.525, 1008.586 697.075, 1013.267 710 C 1025.549 743.910, 1026.328 749.694, 1023.157 783.500 L 1022.500 790.500 1021.073 786.200 C 1019.765 782.255, 1019.393 781.924, 1016.582 782.200 C 1013.154 782.536, 1012.118 784.879, 1013.851 788.381 C 1014.427 789.547, 1016.225 793.650, 1017.847 797.500 C 1019.469 801.350, 1026.624 816.425, 1033.748 831 C 1048.059 860.279, 1054 873.689, 1054 876.713 C 1054 878.108, 1053.020 878.993, 1050.750 879.646 L 1047.500 880.582 1047.687 887.372 C 1047.791 891.107, 1047.631 894.797, 1047.334 895.573 C 1046.641 897.377, 1036.725 900.444, 1026.478 902.023 C 1021.979 902.717, 1009.124 903.245, 997 903.234 C 976.539 903.215, 934.204 902.098, 930.989 901.492 C 927.305 900.797, 885.113 899.518, 871.740 899.696 L 856.980 899.892 857.459 897.255 C 857.997 894.286, 856.345 886.295, 851.411 868 C 849.557 861.125, 846.886 849.200, 845.476 841.500 C 844.066 833.800, 842.257 825.281, 841.456 822.568 C 840.655 819.856, 840 817.269, 840 816.818 C 840 816.368, 841.913 816.002, 844.250 816.004 C 846.587 816.007, 852.207 814.831, 856.738 813.391 L 864.976 810.772 884.738 812.991 C 895.607 814.211, 904.675 815.375, 904.889 815.577 C 905.102 815.779, 904.195 816.356, 902.872 816.859 C 900.710 817.681, 896.385 821.965, 886.079 833.495 C 879.244 841.142, 872 851.542, 872 853.708 C 872 854.927, 873.913 858.256, 876.250 861.105 L 880.500 866.285 890 866.574 C 900.430 866.892, 909.556 868.387, 911.645 870.121 C 912.385 870.734, 913.871 871.006, 914.948 870.724 C 916.026 870.442, 917.715 870.825, 918.704 871.574 C 923.798 875.437, 927.518 870.097, 927.462 859 C 927.413 849.129, 919.706 819.672, 916.684 817.805 C 914.023 816.160, 917.683 815.987, 932.472 817.061 C 943.774 817.881, 948.503 817.897, 949.282 817.118 C 949.879 816.521, 950.095 815.762, 949.764 815.431 C 948.842 814.509, 928.063 807, 926.433 807 C 925.645 807, 925 806.631, 925 806.180 C 925 805.728, 933.834 806.635, 944.631 808.193 C 964.505 811.062, 967 810.985, 967 807.500 C 967 805.421, 964.768 804.244, 959.500 803.547 C 956.750 803.184, 952.700 802.493, 950.500 802.012 C 948.300 801.531, 944.475 800.851, 942 800.500 C 939.525 800.150, 935.700 799.464, 933.500 798.976 C 931.300 798.488, 921.059 797.307, 910.743 796.351 C 900.427 795.396, 892.327 794.291, 892.743 793.896 C 893.159 793.502, 897.668 790.653, 902.762 787.564 C 916.442 779.270, 933.925 770.852, 947.500 766.021 C 954.100 763.672, 961.090 760.947, 963.033 759.966 C 967.643 757.637, 970.554 752.107, 968.883 748.850 C 968.058 747.242, 966.028 746.857, 951.500 745.556 C 946.249 745.085, 941.267 744.630, 924 743.042 C 918.225 742.511, 909.900 741.815, 905.500 741.495 C 901.100 741.175, 893.225 740.496, 888 739.987 C 882.775 739.478, 871.300 738.586, 862.500 738.004 C 853.700 737.423, 843.213 736.444, 839.196 735.828 C 831.240 734.608, 829.316 735.269, 830.446 738.829 C 831.337 741.638, 841.073 743.797, 860.500 745.494 C 863.800 745.783, 868.750 746.237, 871.500 746.503 C 874.250 746.770, 878.750 747.195, 881.500 747.449 C 905.107 749.627, 921.186 751.146, 924.750 751.536 C 927.087 751.791, 930.913 752.200, 933.250 752.445 C 935.587 752.690, 940.163 753.202, 943.417 753.582 L 949.335 754.272 937.417 758.479 C 918.761 765.065, 909.455 769.860, 875.377 790.446 C 868.547 794.573, 867.828 794.776, 857.877 795.404 C 836.914 796.727, 832.319 797.220, 823.561 799.088 C 814.819 800.952, 813.046 801.947, 813.015 805.010 C 812.995 807.023, 817.685 812, 819.603 812 C 823.045 812, 831 815.296, 831 816.722 C 831 817.592, 831.585 817.989, 832.405 817.675 C 834.020 817.055, 836.886 827.801, 839.561 844.500 C 840.441 850, 842.500 860.125, 844.135 867 C 845.770 873.875, 847.977 883.680, 849.039 888.788 C 850.101 893.896, 851.443 898.959, 852.020 900.038 C 853.759 903.287, 851.358 902.361, 847.703 898.373 C 845.040 895.467, 843.926 894.889, 842.104 895.467 C 839.112 896.417, 839.827 899.360, 844.876 906.882 C 854.283 920.896, 861.530 937.288, 866.069 954.818 C 870.293 971.129, 870.643 970.041, 859.750 974.512 C 840.452 982.435, 830.802 987.853, 798.648 1008.821 C 794.494 1011.530, 791.541 1012.879, 791.148 1012.249 C 789.155 1009.052, 781.600 1000.531, 774.772 993.779 C 762.638 981.780, 757.519 979.712, 729.351 975.426 C 727.620 975.163, 725.055 974.044, 723.651 972.940 L 721.100 970.933 727.162 962.269 C 734.422 951.892, 742.895 938.367, 744.089 935.250 C 744.706 933.638, 745.766 933, 747.826 933 C 751.401 933, 756.963 931.180, 759.150 929.294 C 763.570 925.482, 761.314 920.750, 755.525 921.690 L 752.064 922.251 752.655 917.263 C 753.010 914.271, 752.733 910.720, 751.963 908.388 C 751.214 906.119, 750.754 900.543, 750.858 895 C 751.094 882.431, 750.353 878.278, 747.549 876.440 C 745.644 875.192, 744.683 875.159, 741.470 876.229 C 736.915 877.746, 736.161 879.301, 738.861 881.613 C 740.731 883.214, 740.825 884.238, 740.363 897.911 C 739.959 909.844, 739.486 913.365, 737.764 917.250 L 735.658 922 730.079 922.077 C 727.011 922.119, 723.825 922.284, 723 922.445 C 722.175 922.606, 718.734 923.029, 715.354 923.386 C 711.974 923.743, 700.049 925.783, 688.854 927.920 C 677.659 930.057, 665.125 932.388, 661 933.099 C 649.252 935.126, 625.658 934.828, 605.572 932.399 C 595.285 931.155, 586.079 929.829, 581.444 928.925 L 576.388 927.939 576.245 920.682 C 575.925 904.508, 567.291 863.658, 559.559 841.740 C 557.670 836.383, 556.398 832, 556.733 832 C 557.068 832, 558.053 832.595, 558.921 833.322 C 562.421 836.254, 569.225 836.921, 601.500 837.499 C 627.089 837.957, 638.430 837.741, 652 836.539 C 675.323 834.474, 687.117 832.984, 689.298 831.830 C 691.677 830.571, 693.418 826.018, 692.046 824.646 C 691.382 823.982, 678.505 823.596, 655.759 823.557 C 630.953 823.515, 617.707 823.082, 611.080 822.096 L 601.660 820.695 610.580 817.517 C 615.486 815.769, 626.475 811.405, 635 807.818 C 643.525 804.231, 655.450 799.602, 661.500 797.532 C 678.921 791.572, 689.856 786.945, 694.500 783.570 C 696.150 782.371, 699.405 780.837, 701.734 780.160 C 706.089 778.894, 708 776.715, 708 773.016 C 708 771.141, 707.461 770.916, 703.250 771.031 C 700.638 771.103, 697.560 770.940, 696.411 770.669 C 695.261 770.398, 692.365 771.053, 689.974 772.123 C 683.632 774.963, 676.906 775.342, 631.500 775.423 C 588.388 775.500, 582.479 775.032, 567 770.312 C 559.593 768.053, 551.575 767.995, 549.387 770.184 C 545.732 773.840, 546.211 789.537, 550.267 799 L 551.767 802.500 554.001 797.592 C 555.229 794.892, 556.713 789.885, 557.299 786.464 L 558.364 780.244 561.432 781.158 C 565.461 782.358, 577.957 784.712, 585.500 785.692 C 591.932 786.527, 640.510 786.383, 645.500 785.513 C 648.121 785.056, 636.839 789.105, 609.795 798.328 C 597.392 802.558, 584.830 804.907, 566 806.517 C 558.279 807.177, 552.206 809.300, 551.302 811.655 C 551.020 812.391, 551.677 814.792, 552.764 816.988 L 554.740 820.982 550.870 820.363 C 548.379 819.965, 547 820.130, 547 820.827 C 547 821.422, 549.233 830.076, 551.962 840.059 C 554.691 850.041, 558.280 865.024, 559.939 873.354 C 563.655 892.024, 568.282 926.398, 567.131 926.786 C 564.270 927.752, 562.572 930.747, 559.073 941 C 556.915 947.325, 552.859 959.170, 550.060 967.322 C 547.261 975.475, 545.283 982.649, 545.665 983.266 C 546.791 985.089, 556.692 973.228, 560.493 965.500 C 563.567 959.252, 566.603 950.160, 568.507 941.500 L 569.167 938.500 571.417 941.112 C 572.654 942.549, 574.979 943.957, 576.583 944.241 C 578.188 944.526, 582.953 945.514, 587.173 946.437 C 598.790 948.977, 622.826 950.877, 638.500 950.494 C 653.371 950.131, 661.090 948.933, 683.500 943.509 C 709.791 937.147, 724.897 934.038, 729.675 934.008 C 730.912 934, 729.201 937.501, 718.318 957.253 C 712.892 967.102, 711.952 969.503, 712.515 972.071 C 713 974.277, 712.709 975.664, 711.476 977.027 C 709.139 979.608, 710.260 983.579, 714.481 987.679 C 717.502 990.613, 718.123 990.825, 721.150 989.957 C 725.476 988.716, 732.916 988.743, 742.678 990.036 C 752.522 991.339, 762.634 996.154, 769.500 1002.807 C 778.339 1011.373, 783.966 1017.780, 784.971 1020.423 C 785.510 1021.840, 786.561 1023, 787.306 1023 C 788.618 1023, 789.528 1024.452, 791.854 1030.250 C 792.461 1031.763, 793.362 1033, 793.856 1033 C 795.350 1033, 797.217 1030.173, 797.887 1026.898 C 798.378 1024.496, 799.307 1023.537, 802.053 1022.593 C 803.997 1021.924, 813.484 1016.147, 823.136 1009.755 C 838.801 999.380, 849.165 993.463, 860 988.710 C 861.925 987.866, 866.332 985.940, 869.793 984.431 C 877.375 981.126, 879.584 978.291, 880.687 970.451 C 881.585 964.064, 882.011 965.571, 872.251 940.586 C 870.765 936.783, 867.404 929.393, 864.781 924.163 C 862.158 918.933, 860.276 914.395, 860.599 914.077 C 860.921 913.760, 877.456 913.725, 897.343 914 C 958.391 914.844, 1009.741 914.492, 1018.500 913.168 C 1038.075 910.210, 1050.676 905.310, 1053.384 899.603 C 1054.273 897.730, 1055 895.650, 1055 894.981 C 1055 894.312, 1056.311 892.270, 1057.914 890.445 C 1059.677 888.438, 1061.308 884.982, 1062.042 881.702 C 1063.139 876.800, 1063.036 875.617, 1060.964 869.389 C 1059.703 865.600, 1051.551 848.325, 1042.847 831 C 1031.852 809.112, 1028.011 800.656, 1030.262 803.287 C 1035.934 809.921, 1043.358 809.205, 1050.686 801.317 C 1056.631 794.918, 1060.817 786.061, 1069.428 761.655 C 1073.598 749.839, 1074.931 746.600, 1081.220 733 C 1085.378 724.009, 1091.536 708.405, 1093.060 703 C 1093.757 700.525, 1094.856 698.050, 1095.501 697.500 C 1099.097 694.434, 1099.038 692.471, 1095.107 684.378 C 1091.768 677.502, 1077.884 655.383, 1076.039 654 C 1074.244 652.654, 1056.595 628.150, 1051.571 620.028 C 1048.430 614.950, 1037.952 595.204, 1028.287 576.148 C 1018.622 557.091, 1007.876 536.426, 1004.407 530.224 C 998.378 519.448, 992.678 508.082, 977.208 476 C 973.363 468.025, 967.560 456.775, 964.312 451 C 958.717 441.048, 958.228 440.487, 954.954 440.247 C 953.054 440.108, 949.700 440.842, 947.500 441.879 M 1095.930 598.250 C 1093.594 601.969, 1093.691 604.348, 1096.850 621 C 1100.531 640.406, 1101.319 654.367, 1100.660 688.500 C 1100.320 706.100, 1099.862 721.400, 1099.642 722.500 C 1099.422 723.600, 1098.926 729.900, 1098.541 736.500 C 1098.155 743.100, 1097.665 749.850, 1097.451 751.500 C 1097.237 753.150, 1096.597 758.878, 1096.029 764.228 C 1094.831 775.509, 1094.270 779.608, 1092.981 786.500 C 1091.145 796.317, 1090.952 797.574, 1090.360 803.500 C 1089.672 810.390, 1090.945 814.306, 1096.175 821.386 C 1100.405 827.113, 1104.056 828.849, 1107.343 826.695 C 1111.681 823.852, 1121.522 811.834, 1135.668 792.103 C 1139.061 787.372, 1143.147 781.700, 1144.748 779.500 C 1149.252 773.315, 1162.112 751.655, 1168.200 740 C 1181.616 714.318, 1192.496 695.803, 1198.468 688.488 C 1200.500 685.999, 1202.027 682.772, 1202.490 679.988 C 1202.900 677.520, 1203.389 674.676, 1203.576 673.669 C 1204.261 669.985, 1201.857 668, 1196.710 668 C 1190.460 668, 1187.296 669.731, 1181.725 676.201 C 1174.531 684.557, 1161.943 704.375, 1149.849 726.387 C 1148.717 728.446, 1146.053 733.159, 1143.142 738.250 C 1138.518 746.335, 1128.129 762.220, 1122.582 769.686 C 1119.237 774.189, 1115.998 778.689, 1115.385 779.686 C 1114.537 781.067, 1114.459 780.066, 1115.060 775.500 C 1116.256 766.412, 1116.930 759.418, 1117.565 749.500 C 1117.882 744.550, 1118.313 739.957, 1118.523 739.293 C 1119.133 737.363, 1120.451 695.962, 1120.442 679 C 1120.425 642.281, 1116.751 613.618, 1110.656 602.647 C 1108.590 598.927, 1102.873 595, 1099.525 595 C 1098.670 595, 1097.052 596.462, 1095.930 598.250 M 466 630.659 C 467.375 631.688, 470.525 633.611, 473 634.932 C 478.404 637.815, 485.569 642.507, 489 645.409 L 491.500 647.523 498.808 643.890 L 506.115 640.258 501.808 637.743 C 489.185 630.374, 487.125 629.721, 475 629.242 C 463.584 628.791, 463.518 628.801, 466 630.659 M 535.411 673.621 C 534.447 678.759, 535.602 715.323, 536.954 722.500 C 539.460 735.797, 541.243 743, 542.028 743 C 544.366 743, 545.302 712.652, 543.708 688.500 C 542.539 670.772, 542.339 670, 538.934 670 C 536.458 670, 536.003 670.468, 535.411 673.621 M 547.838 679.905 L 547.465 683.811 550.334 682.327 L 553.202 680.844 550.927 678.422 C 549.675 677.090, 548.552 676, 548.431 676 C 548.309 676, 548.042 677.757, 547.838 679.905 M 1234.216 722.891 C 1227.844 725.092, 1224.855 727.732, 1222.426 733.305 C 1220.202 738.408, 1215.967 744.912, 1210.770 751.209 C 1207.044 755.722, 1195.670 777.340, 1192.694 785.564 C 1191.910 787.729, 1190.961 790.221, 1190.584 791.103 C 1190.013 792.438, 1191.329 792.990, 1198.450 794.404 C 1203.153 795.338, 1209.415 796.899, 1212.367 797.873 L 1217.733 799.643 1219.511 794.572 C 1220.489 791.782, 1222.739 786.350, 1224.512 782.500 C 1232.808 764.477, 1233.784 761.829, 1236.493 750 C 1238.777 740.029, 1242.675 724.933, 1243.529 722.750 C 1244.443 720.416, 1241.240 720.464, 1234.216 722.891 M 1230.547 827.332 C 1231.078 829.447, 1229.486 833.656, 1223.010 847.257 C 1209.639 875.338, 1207.308 879.651, 1200.447 888.998 C 1196.850 893.899, 1190.977 902.992, 1187.396 909.205 C 1183.815 915.417, 1179.920 921.917, 1178.742 923.650 L 1176.599 926.800 1170.418 922.480 C 1162.135 916.690, 1156.116 914.675, 1147.630 914.850 C 1138.456 915.039, 1133.741 916.596, 1128.580 921.138 C 1123.405 925.694, 1119.559 933.712, 1120.883 937.185 C 1121.820 939.645, 1126.739 945, 1128.060 945 C 1128.493 945, 1129.895 943.602, 1131.174 941.893 C 1138.369 932.281, 1140.117 931.336, 1149.784 931.827 C 1154.593 932.071, 1164.729 937.608, 1171.953 943.937 C 1175.140 946.730, 1177.879 946.235, 1179.895 942.500 C 1180.786 940.850, 1183.226 936.697, 1185.317 933.271 C 1187.408 929.845, 1191.345 922.324, 1194.065 916.558 C 1196.784 910.792, 1202.091 900.995, 1205.857 894.787 C 1213.415 882.328, 1214.893 879.241, 1222.031 861 C 1224.721 854.125, 1228.290 845.191, 1229.961 841.146 C 1233.320 833.019, 1233.815 827.921, 1231.437 825.948 C 1230.067 824.811, 1229.957 824.982, 1230.547 827.332 M 722.667 843.667 C 721.516 844.817, 721.938 848.980, 723.514 852.027 C 724.998 854.896, 724.973 854.966, 722.264 855.523 C 720.744 855.836, 716.800 856.762, 713.500 857.580 C 710.200 858.399, 703.675 859.187, 699 859.330 C 689.824 859.612, 686.427 860.848, 681.612 865.657 C 677.502 869.761, 676.648 872.673, 678.068 877.744 C 680.753 887.333, 695.382 898.380, 697.631 892.518 C 698.054 891.418, 698.672 891.289, 700.034 892.018 C 701.043 892.558, 703.743 893, 706.033 893 C 709.395 893, 710.752 892.406, 713.074 889.921 C 714.655 888.228, 716.375 885.300, 716.896 883.415 C 718.268 878.446, 722.815 874, 726.524 874 C 728.191 874, 730.471 873.359, 731.590 872.575 C 732.916 871.646, 734.125 871.467, 735.062 872.060 C 735.853 872.560, 738.638 872.976, 741.250 872.985 C 746.733 873.002, 750 870.562, 750 866.449 C 750 863.359, 752.143 862.343, 767.622 858.094 C 785.037 853.314, 794.336 851.940, 813.500 851.316 C 823.400 850.994, 832.314 850.311, 833.310 849.798 C 834.501 849.185, 835.014 847.988, 834.810 846.299 L 834.500 843.733 814 843.747 C 788.536 843.764, 776.402 845.425, 752.113 852.218 L 740.726 855.402 735.113 849.178 C 730.515 844.079, 728.943 842.958, 726.417 842.977 C 724.721 842.990, 723.033 843.300, 722.667 843.667 M 586.214 866.250 C 586.906 878.546, 592.131 888.891, 609.139 911.637 C 615.996 920.808, 618.488 922.912, 620.321 921.079 C 622.657 918.743, 620.890 913.468, 613.325 900.195 C 609.031 892.663, 603.792 882.919, 601.681 878.543 C 597.825 870.549, 588.728 858, 586.788 858 C 586.116 858, 585.913 860.911, 586.214 866.250 M 1113 948.160 C 1109.975 949.267, 1104.350 950.539, 1100.500 950.985 C 1093.617 951.784, 1093.425 951.887, 1089 957.116 C 1086.525 960.041, 1081.645 965.455, 1078.155 969.146 C 1072.527 975.099, 1071.882 976.188, 1072.453 978.788 C 1073.461 983.377, 1078.078 987.210, 1082.130 986.822 C 1085.286 986.520, 1085.500 986.267, 1085.500 982.828 C 1085.500 980.294, 1086.292 978.278, 1088.055 976.328 C 1089.459 974.772, 1092.536 970.933, 1094.891 967.796 C 1098.614 962.835, 1099.891 961.883, 1104.687 960.489 C 1118.344 956.519, 1124.178 952.234, 1122.365 947.509 C 1121.617 945.561, 1119.743 945.691, 1113 948.160 M 647.006 956.250 C 647.016 960.317, 649.145 966.410, 652.511 972 C 654.332 975.025, 661.074 987.400, 667.492 999.500 C 680.277 1023.603, 686.123 1032.887, 697.088 1046.500 C 727.249 1083.944, 760.305 1115.145, 786.613 1131 C 796.153 1136.750, 799.893 1139.726, 805.773 1146.250 C 806.640 1147.213, 808.129 1148, 809.081 1148 C 810.227 1148, 811.807 1150.128, 813.758 1154.297 C 819.917 1167.458, 825.634 1170.805, 832.721 1165.399 C 834.597 1163.968, 836.231 1162.956, 836.354 1163.149 C 836.476 1163.342, 837.636 1166.200, 838.933 1169.500 C 840.229 1172.800, 842.370 1176.959, 843.690 1178.742 C 846.640 1182.727, 850.765 1184.042, 852.571 1181.572 C 853.695 1180.035, 854.090 1180.370, 856.235 1184.675 C 858.803 1189.829, 862.348 1192.420, 864.937 1191.033 C 865.797 1190.572, 867.761 1189.026, 869.302 1187.598 C 870.842 1186.169, 872.244 1185, 872.416 1185 C 872.588 1185, 873.523 1187.138, 874.495 1189.750 C 876.493 1195.120, 880.557 1200, 883.032 1200 C 883.943 1200, 885.990 1198.882, 887.581 1197.515 L 890.472 1195.031 892.228 1198.453 C 894.189 1202.275, 897.525 1205, 900.245 1205 C 902.908 1205, 910.489 1197.569, 913.298 1192.207 C 915.553 1187.901, 916.017 1187.551, 919.124 1187.815 C 921.978 1188.058, 923.133 1187.437, 926.596 1183.801 C 928.849 1181.435, 931.713 1177.789, 932.960 1175.698 C 935.045 1172.202, 935.366 1172.021, 936.942 1173.448 C 937.886 1174.302, 939.342 1175, 940.179 1175 C 943.429 1175, 949.923 1168.896, 954.520 1161.519 L 959.286 1153.874 961.418 1157.687 C 964.274 1162.794, 967.346 1163.108, 972.083 1158.776 C 974.054 1156.974, 977.168 1152.738, 979.002 1149.363 L 982.337 1143.226 987.145 1152.863 C 989.789 1158.163, 993.915 1167.532, 996.314 1173.682 C 1000.639 1184.767, 1000.658 1184.869, 998.471 1185.418 C 994.618 1186.385, 990.189 1191.891, 989.071 1197.104 C 987.620 1203.872, 989.836 1215.833, 994.148 1224.498 C 995.992 1228.202, 1000.313 1234.517, 1003.750 1238.530 C 1007.188 1242.543, 1009.993 1246.203, 1009.985 1246.663 C 1009.976 1247.123, 1009.551 1246.838, 1009.039 1246.029 C 1008.527 1245.220, 1007.910 1244.770, 1007.667 1245.029 C 1007.079 1245.655, 1008.638 1264.527, 1010.070 1274.134 C 1010.696 1278.333, 1010.934 1282.631, 1010.600 1283.686 C 1010.265 1284.742, 1010.640 1286.481, 1011.434 1287.552 C 1012.806 1289.403, 1012.966 1289.413, 1014.641 1287.762 C 1018.480 1283.978, 1017.169 1269.067, 1011.611 1253.316 C 1010.371 1249.800, 1010.358 1249.077, 1011.527 1248.628 C 1013.099 1248.025, 1017.101 1252.746, 1022.011 1261 C 1027.634 1270.450, 1030.217 1273.984, 1031.102 1273.437 C 1031.572 1273.147, 1031.691 1269.892, 1031.367 1266.205 C 1030.589 1257.359, 1027.044 1250.196, 1019.397 1242.023 L 1013.294 1235.500 1012.605 1223.007 C 1011.781 1208.057, 1011.312 1205.793, 1009.129 1206.216 C 1007.739 1206.485, 1007.500 1208.180, 1007.500 1217.767 C 1007.500 1223.946, 1007.275 1228.994, 1007 1228.983 C 1005.739 1228.935, 999.856 1218.510, 998.030 1213.088 C 995.343 1205.113, 995.359 1198.084, 998.073 1194.635 C 1001.122 1190.758, 1003.206 1191.293, 1005.349 1196.504 C 1007.913 1202.739, 1009.246 1202.195, 1008.839 1195.079 L 1008.500 1189.159 1015.685 1187.073 C 1021.007 1185.528, 1023.039 1184.452, 1023.526 1182.919 C 1023.887 1181.780, 1023.902 1180.569, 1023.560 1180.226 C 1023.217 1179.884, 1019.723 1180.155, 1015.795 1180.828 C 1011.867 1181.502, 1008.357 1181.704, 1007.996 1181.277 C 1007.634 1180.849, 1006.559 1177.575, 1005.606 1174 C 1003.690 1166.811, 996.914 1153.375, 991.455 1145.938 C 989.034 1142.641, 987.089 1141.027, 985.277 1140.813 L 982.632 1140.500 985.893 1137.250 C 988.270 1134.881, 990.061 1134, 992.498 1134 C 995.134 1134, 996.807 1133.036, 1000.397 1129.445 C 1002.902 1126.940, 1005.688 1123.678, 1006.587 1122.195 C 1007.487 1120.713, 1009.502 1118.471, 1011.065 1117.212 C 1013.432 1115.308, 1014.228 1115.125, 1015.824 1116.122 C 1018.896 1118.040, 1023.161 1114.179, 1027.816 1105.268 C 1031.992 1097.274, 1037.962 1090, 1040.348 1090 C 1043.459 1090, 1050.035 1083.662, 1055.708 1075.195 L 1061.772 1066.144 1065.390 1075.322 C 1075.534 1101.052, 1084.746 1135.749, 1092.518 1177.500 C 1097.274 1203.048, 1098.577 1209.226, 1103.487 1229.500 C 1105.884 1239.400, 1108.645 1251.673, 1109.621 1256.774 C 1111.391 1266.019, 1111.403 1266.041, 1113.379 1264.066 C 1116.185 1261.260, 1115.776 1253.460, 1111.526 1228.714 C 1109.617 1217.596, 1106.459 1196.350, 1104.509 1181.500 C 1099.252 1141.477, 1096.741 1127.957, 1088.823 1097.052 C 1083.709 1077.088, 1079.325 1063.468, 1077.393 1061.536 C 1075.875 1060.018, 1072.791 1059.480, 1068.070 1059.911 C 1065.880 1060.110, 1066.183 1059.508, 1071.136 1053.816 C 1074.159 1050.342, 1079.912 1042.567, 1083.921 1036.539 C 1093.988 1021.402, 1104.588 1006.653, 1108.109 1002.883 C 1109.731 1001.146, 1110.812 999.478, 1110.510 999.176 C 1109.510 998.177, 1098.639 1010.279, 1086.641 1025.749 C 1080.136 1034.135, 1074.335 1041.293, 1073.751 1041.654 C 1072.692 1042.309, 1073.114 1038.428, 1074.487 1034.879 C 1075.421 1032.468, 1072.542 1030.204, 1067.602 1029.463 C 1061.995 1028.622, 1059.480 1029.997, 1057.943 1034.742 C 1056.366 1039.608, 1053.106 1046.705, 1050.703 1050.500 C 1049.084 1053.057, 1048.881 1053.157, 1049.327 1051.176 C 1050.453 1046.184, 1041.363 1042.128, 1036.099 1045.273 C 1033.620 1046.754, 1030.150 1054.474, 1023.787 1072.663 C 1022.098 1077.493, 1022.022 1077.555, 1018.252 1077.195 C 1013.299 1076.723, 1010.984 1078.658, 1006.522 1087 C 1002.495 1094.530, 1002.262 1094.459, 1004.988 1086.534 C 1007.815 1078.317, 1007.062 1076.381, 1000.463 1074.904 C 991.508 1072.900, 990.003 1074.079, 984.866 1087.113 C 980.835 1097.340, 980.452 1097.933, 979.026 1096.161 C 978.187 1095.119, 975.417 1093.763, 972.871 1093.149 C 969.098 1092.239, 967.685 1092.311, 965.224 1093.538 C 962.619 1094.838, 961.962 1096.036, 960.437 1102.272 C 959.465 1106.247, 956.494 1114.900, 953.835 1121.500 C 951.176 1128.099, 949 1133.644, 949 1133.821 C 949 1133.998, 948.320 1133.462, 947.488 1132.631 C 945.224 1130.367, 937.685 1129.529, 934.049 1131.138 C 931.746 1132.158, 930.611 1133.654, 929.419 1137.244 C 927.735 1142.313, 927.108 1142.583, 920.500 1141.082 C 917.457 1140.391, 911.097 1142.275, 909.868 1144.230 C 909.493 1144.828, 908.409 1144.409, 907.200 1143.200 C 904.770 1140.770, 895.729 1139.374, 891.905 1140.839 L 889.310 1141.833 889.096 1135.241 C 888.862 1128, 887.909 1125.378, 885.251 1124.666 C 874.101 1121.679, 874 1121.628, 874 1118.973 C 874 1113.932, 870.716 1111.925, 859.918 1110.369 C 855.685 1109.758, 850.024 1112.466, 848.507 1115.828 C 847.961 1117.038, 846.954 1117.813, 846.269 1117.550 C 843.154 1116.354, 834.909 1115.827, 833.757 1116.750 C 833.065 1117.303, 831.530 1118.052, 830.344 1118.415 C 828.431 1119.001, 828.108 1118.593, 827.476 1114.787 C 827.085 1112.429, 826.645 1109.825, 826.500 1109 C 826.355 1108.175, 825.922 1105.611, 825.539 1103.301 C 824.942 1099.709, 824.384 1098.961, 821.671 1098.121 C 815.387 1096.176, 809.830 1095.753, 807.430 1097.037 C 805.455 1098.095, 804.656 1098.003, 802.295 1096.452 C 799.372 1094.531, 789.907 1093.813, 786.950 1095.287 C 785.796 1095.863, 784.966 1095.152, 783.705 1092.508 C 781.864 1088.648, 778.793 1087, 773.438 1087 C 770.884 1087, 768.957 1087.948, 765.905 1090.705 C 761.662 1094.538, 761.274 1096.541, 763.616 1102.500 C 764.617 1105.046, 742.895 1085.742, 732.438 1074.793 C 720.353 1062.139, 701.146 1038.731, 693.223 1027 C 689.322 1021.225, 681.314 1007.050, 675.427 995.500 C 661.141 967.473, 657.766 961.812, 652.823 957.580 C 647.943 953.403, 646.998 953.187, 647.006 956.250 M 865.622 1009.483 C 862.939 1010.845, 859.295 1013.063, 857.524 1014.414 C 855.753 1015.765, 852.098 1018.081, 849.402 1019.561 C 846.706 1021.041, 843.600 1023.061, 842.500 1024.050 C 839.137 1027.073, 828.440 1032.723, 818.726 1036.607 C 803.796 1042.577, 793 1047.957, 793 1049.429 C 793 1051.236, 801.739 1053.307, 809.702 1053.387 C 815.821 1053.448, 815.881 1053.476, 814.202 1055.474 C 813.266 1056.588, 812.244 1057.725, 811.930 1058 C 810.318 1059.414, 802.998 1070.085, 801.136 1073.733 C 797.754 1080.363, 798.260 1082.783, 804.699 1090.750 C 807.768 1094.547, 808.588 1095, 812.393 1095 C 815.518 1095, 817.212 1094.401, 818.759 1092.750 C 823.107 1088.108, 824.282 1080.766, 821.210 1077.439 C 819.674 1075.775, 819.601 1075.145, 820.695 1073 C 821.427 1071.566, 821.977 1071.151, 821.985 1072.028 C 821.993 1072.868, 822.788 1074.301, 823.750 1075.212 C 824.712 1076.124, 827.001 1078.474, 828.835 1080.435 C 830.669 1082.396, 832.585 1084, 833.094 1084 C 833.978 1084, 835.463 1082.499, 838.231 1078.808 C 839.198 1077.518, 841.762 1076.965, 849 1076.483 C 854.225 1076.136, 866.150 1074.558, 875.500 1072.978 C 884.850 1071.398, 900.150 1069.610, 909.500 1069.005 C 918.850 1068.399, 933.880 1066.793, 942.899 1065.435 C 951.919 1064.076, 959.509 1063.176, 959.767 1063.433 C 960.449 1064.116, 952.407 1078.514, 947.442 1085.500 C 945.097 1088.800, 939.948 1095.100, 936 1099.500 C 929.285 1106.983, 923 1117.668, 923 1121.600 C 923 1123.118, 922.828 1123.120, 920.750 1121.624 C 914.100 1116.837, 892.754 1102.914, 888 1100.263 C 884.975 1098.576, 879.660 1095.586, 876.189 1093.618 C 858.558 1083.621, 844.540 1079.691, 839.544 1083.344 C 837.342 1084.954, 837.920 1088.464, 840.917 1091.681 C 842.517 1093.398, 843.689 1093.717, 846.839 1093.295 C 854.376 1092.284, 869.237 1098.835, 908 1120.259 C 909.925 1121.323, 913.778 1123.484, 916.561 1125.062 L 921.623 1127.931 927.783 1123.906 C 941.837 1114.722, 959.840 1090.993, 969.436 1069 C 970.996 1065.425, 972.353 1062.396, 972.451 1062.269 C 972.549 1062.141, 975.975 1061.373, 980.065 1060.562 C 984.154 1059.751, 988.462 1058.878, 989.637 1058.623 C 992.362 1058.031, 996 1055.773, 996 1054.674 C 996 1054.209, 998.138 1054.992, 1000.750 1056.414 C 1004.510 1058.461, 1004.979 1058.567, 1003 1056.924 C 1001.625 1055.782, 999.449 1053.951, 998.163 1052.855 C 995.528 1050.608, 995.410 1050.597, 984.725 1051.578 C 978.014 1052.195, 977.030 1052.086, 977.530 1050.782 C 977.849 1049.951, 979.213 1048.768, 980.561 1048.154 C 981.909 1047.540, 982.956 1046.691, 982.888 1046.269 C 982.420 1043.382, 983.266 1041.164, 985.008 1040.708 C 986.119 1040.418, 987.824 1038.377, 988.825 1036.141 L 990.635 1032.100 994.067 1034.155 C 995.955 1035.285, 998.490 1037.120, 999.699 1038.232 C 1002.012 1040.358, 1005 1040.045, 1005 1037.676 C 1005 1035.614, 994.571 1026.136, 990.369 1024.381 C 985.724 1022.440, 982.220 1023.274, 981.407 1026.515 C 981.064 1027.882, 980.417 1029, 979.969 1029 C 979.521 1029, 974.363 1026.066, 968.507 1022.481 C 954.224 1013.737, 948.642 1011, 945.092 1011 C 943.456 1011, 941.840 1010.550, 941.500 1010 C 940.740 1008.770, 938.961 1008.739, 937.090 1009.923 C 935.924 1010.661, 935.896 1011.335, 936.929 1013.829 C 939.287 1019.522, 938.502 1019.925, 929 1017.904 C 916.303 1015.204, 909.611 1015.630, 906.903 1019.312 C 906.361 1020.048, 901.683 1018.694, 890.500 1014.565 C 882.856 1011.742, 871 1013.571, 871 1017.573 C 871 1018.428, 869.999 1019, 868.500 1019 C 867.125 1019, 866 1018.851, 866 1018.670 C 866 1018.488, 868.025 1016.885, 870.500 1015.107 C 873.719 1012.796, 875 1011.182, 875 1009.438 C 875 1006.204, 872.058 1006.218, 865.622 1009.483 M 949.725 1030.451 C 946.570 1037.066, 940.430 1038.581, 927.114 1036.031 C 919.421 1034.558, 918.875 1034.658, 915.074 1038.220 C 912.096 1041.010, 910.984 1041.416, 906.574 1041.322 C 903.783 1041.262, 898.107 1040.118, 893.959 1038.779 L 886.418 1036.345 884.602 1038.752 C 881.152 1043.327, 877.072 1044.997, 869.500 1044.937 C 858.732 1044.851, 853.419 1043.640, 848.590 1040.172 C 844.848 1037.485, 844.044 1037.242, 843.012 1038.486 C 842.348 1039.285, 839.894 1041.148, 837.559 1042.626 C 833.971 1044.896, 833.292 1045.850, 833.182 1048.780 C 833.110 1050.687, 831.650 1054.730, 829.938 1057.764 C 827.910 1061.358, 827.342 1063.083, 828.311 1062.711 C 831.548 1061.469, 842.131 1059.966, 854.500 1058.993 C 861.650 1058.431, 871.325 1057.320, 876 1056.525 C 880.714 1055.723, 894.523 1054.852, 907 1054.569 C 928.308 1054.087, 952.762 1053.172, 961.451 1052.531 C 964.681 1052.293, 965.699 1051.686, 967.027 1049.210 C 967.921 1047.543, 969.453 1044.958, 970.432 1043.464 C 971.443 1041.920, 971.808 1040.479, 971.277 1040.124 C 970.763 1039.781, 968.353 1037.890, 965.921 1035.922 C 962.064 1032.799, 952.857 1027, 951.757 1027 C 951.544 1027, 950.630 1028.553, 949.725 1030.451 M 770.559 1103.567 C 769.491 1104.355, 767.787 1105, 766.771 1105 C 765.503 1105, 766.579 1106.363, 770.213 1109.359 C 773.121 1111.756, 775.633 1113.611, 775.795 1113.480 C 776.227 1113.133, 773.835 1103.619, 773.114 1102.817 C 772.776 1102.442, 771.626 1102.779, 770.559 1103.567 M 1397 1111.748 C 1393.123 1112.339, 1384.575 1115.655, 1372 1121.446 C 1365.675 1124.359, 1356.450 1128.433, 1351.500 1130.500 C 1346.550 1132.567, 1339.125 1135.823, 1335 1137.736 C 1330.875 1139.648, 1323.992 1142.767, 1319.705 1144.665 C 1303.980 1151.628, 1298.739 1154.961, 1280.072 1169.865 C 1268.331 1179.240, 1265.697 1181.008, 1255 1186.698 C 1250.875 1188.892, 1243.047 1193.248, 1237.605 1196.378 C 1232.162 1199.509, 1227.300 1201.933, 1226.800 1201.767 C 1226.300 1201.600, 1225.763 1198.322, 1225.607 1194.482 C 1225.258 1185.911, 1221.984 1176.109, 1217.374 1169.829 C 1212.817 1163.621, 1207.764 1161.642, 1197.759 1162.147 C 1191.280 1162.474, 1189.912 1162.902, 1186.370 1165.707 C 1176.838 1173.257, 1173.241 1182.703, 1172.797 1201.352 C 1172.503 1213.716, 1172.849 1215.829, 1174.957 1214.526 C 1176.559 1213.536, 1187.137 1197.494, 1191 1190.195 C 1194.676 1183.250, 1196.691 1181.633, 1200.485 1182.586 C 1204.308 1183.545, 1204.829 1187.395, 1203.654 1206 C 1202.544 1223.572, 1202.633 1223.320, 1195.640 1228.816 C 1192.263 1231.470, 1186.350 1236.458, 1182.500 1239.901 C 1175.601 1246.071, 1166.330 1251.513, 1158.500 1253.988 C 1150.604 1256.484, 1149.150 1260.109, 1153.364 1266.785 C 1157.099 1272.702, 1158.427 1273.480, 1162.157 1271.935 C 1169.883 1268.735, 1180.042 1260.804, 1189.978 1250.216 C 1195.722 1244.095, 1200.537 1239.204, 1200.679 1239.346 C 1201.299 1239.965, 1196.962 1288.568, 1195.401 1298.500 C 1191.608 1322.626, 1181.518 1362.291, 1171.489 1392.500 C 1166.319 1408.071, 1162.303 1421.593, 1159.610 1432.500 C 1158.252 1438, 1156.211 1445.954, 1155.076 1450.175 C 1152.497 1459.765, 1139.756 1499.811, 1137.192 1506.388 C 1135.507 1510.707, 1135.218 1510.998, 1134.703 1508.888 C 1134.383 1507.574, 1134.295 1504.925, 1134.508 1503 C 1134.721 1501.075, 1135.130 1496.350, 1135.419 1492.500 C 1135.915 1485.872, 1137.468 1473.066, 1138.572 1466.500 C 1138.850 1464.850, 1139.341 1456.975, 1139.665 1449 C 1140.310 1433.082, 1138.467 1412.567, 1134.991 1396.958 C 1132.488 1385.723, 1131.768 1383.944, 1127.972 1379.621 C 1125.065 1376.310, 1124.793 1375.394, 1124.590 1368.260 C 1124.420 1362.251, 1123.510 1358.017, 1120.554 1349.495 L 1116.738 1338.490 1123.285 1320.495 C 1133.509 1292.395, 1134.157 1289.810, 1143.612 1239.500 C 1148.090 1215.669, 1148.948 1199.801, 1146.002 1195.279 C 1142.606 1190.066, 1133.804 1189.759, 1127.415 1194.632 C 1121.167 1199.398, 1118.577 1207.619, 1121.070 1214.771 C 1123.113 1220.630, 1125.964 1219.644, 1127.898 1212.409 C 1128.499 1210.159, 1129.957 1207.459, 1131.137 1206.409 L 1133.282 1204.500 1132.567 1211 C 1131.334 1222.207, 1119.008 1276.511, 1114.297 1291.490 C 1112.911 1295.896, 1108.414 1308.275, 1104.303 1319 C 1100.192 1329.725, 1095.012 1343.900, 1092.791 1350.500 C 1088.810 1362.333, 1088.747 1362.748, 1088.266 1380.250 C 1087.914 1393.011, 1088.093 1398, 1088.901 1398 C 1090.225 1398, 1095.569 1389.860, 1100.525 1380.294 C 1102.461 1376.557, 1106.466 1366.750, 1109.426 1358.500 C 1113.630 1346.780, 1114.935 1344.047, 1115.397 1346 C 1117.531 1355.040, 1120.235 1368.861, 1120.242 1370.768 C 1120.246 1372.016, 1120.592 1373.248, 1121.011 1373.507 C 1121.430 1373.766, 1121.168 1375.670, 1120.430 1377.739 C 1118.577 1382.933, 1118.684 1387.949, 1120.934 1401.151 C 1123.541 1416.459, 1125.264 1439.519, 1124.497 1448.861 C 1124.153 1453.063, 1122.992 1462.960, 1121.919 1470.856 C 1118.730 1494.323, 1118.447 1504.125, 1120.570 1517.646 C 1121.594 1524.166, 1122.383 1530.400, 1122.323 1531.500 C 1122.263 1532.600, 1121.932 1538.050, 1121.587 1543.611 C 1121.073 1551.913, 1121.228 1553.945, 1122.457 1554.964 C 1124.666 1556.798, 1131.007 1551.397, 1135.682 1543.699 C 1137.752 1540.289, 1140.942 1535.250, 1142.771 1532.500 C 1154.436 1514.956, 1173.471 1468.128, 1183.013 1433.500 C 1184.225 1429.100, 1187.159 1419.650, 1189.533 1412.500 C 1205.557 1364.229, 1216.405 1320.682, 1218.970 1294.332 C 1219.550 1288.374, 1220.223 1281.475, 1220.466 1279 C 1221.088 1272.677, 1222.544 1253.698, 1223.497 1239.500 C 1224.680 1221.876, 1224.786 1221.489, 1229.098 1219.065 C 1233.309 1216.698, 1235.479 1213.689, 1234.608 1211.422 C 1233.864 1209.483, 1229.070 1209.627, 1226.829 1211.655 C 1225.113 1213.207, 1225 1213.182, 1225 1211.251 C 1225 1209.345, 1225.797 1209.139, 1235.750 1208.475 C 1259.807 1206.870, 1266.729 1203.366, 1300 1175.948 C 1307.503 1169.765, 1313.324 1166.543, 1349.644 1148.465 C 1372.274 1137.201, 1392.693 1127.314, 1395.020 1126.493 C 1400.180 1124.672, 1404.419 1124.576, 1405.747 1126.250 C 1409.305 1130.736, 1410.510 1147.910, 1410.464 1193.500 L 1410.427 1229.500 1405.719 1257 C 1403.129 1272.125, 1399.671 1291.700, 1398.033 1300.500 C 1396.396 1309.300, 1393.220 1327.750, 1390.977 1341.500 C 1385.311 1376.219, 1376.233 1416.175, 1368.141 1442 C 1363.488 1456.850, 1359.330 1473.557, 1358.559 1480.500 C 1358.254 1483.250, 1357.711 1497.987, 1357.354 1513.250 C 1356.990 1528.803, 1356.304 1541, 1355.793 1541 C 1355.292 1541, 1355.102 1541.356, 1355.371 1541.790 C 1355.639 1542.225, 1355.277 1543.913, 1354.567 1545.540 C 1352.338 1550.644, 1342.154 1584.017, 1339.474 1595 C 1336.080 1608.909, 1332.834 1618.931, 1327.365 1632.389 C 1319.928 1650.691, 1316.387 1663.977, 1313.540 1684.272 L 1312.871 1689.044 1310.185 1687.153 C 1306.028 1684.225, 1286.727 1675, 1284.757 1675 C 1283.791 1675, 1283 1675.405, 1283 1675.900 C 1283 1677.458, 1295.583 1692.462, 1300.650 1696.946 C 1303.318 1699.306, 1307.399 1702.167, 1309.720 1703.304 C 1313.343 1705.077, 1314.281 1705.188, 1316.344 1704.084 C 1319.832 1702.217, 1323.073 1694.934, 1324.086 1686.687 C 1324.571 1682.734, 1325.237 1677.250, 1325.566 1674.500 C 1326.951 1662.916, 1329.365 1653.453, 1335.883 1634.048 C 1339.937 1621.979, 1344.105 1607.104, 1345.984 1598 C 1349.472 1581.101, 1350.657 1576.409, 1355.127 1561.802 C 1357.171 1555.121, 1358.646 1551.930, 1359.867 1551.542 C 1362.260 1550.783, 1364.893 1544.982, 1365.461 1539.221 C 1365.717 1536.624, 1366.189 1528.650, 1366.510 1521.500 C 1367.244 1505.172, 1368.773 1487.306, 1370.106 1479.500 C 1371.274 1472.654, 1377.374 1450.742, 1379.584 1445.454 C 1382.568 1438.312, 1392.110 1401.555, 1397.483 1376.500 C 1400.732 1361.354, 1401.933 1355.035, 1406.988 1326.500 C 1408.157 1319.900, 1409.954 1310.450, 1410.981 1305.500 C 1412.007 1300.550, 1413.115 1294.746, 1413.442 1292.602 C 1413.769 1290.458, 1414.248 1287.758, 1414.508 1286.602 C 1414.767 1285.446, 1415.158 1283.375, 1415.378 1282 C 1415.597 1280.625, 1417.389 1270.275, 1419.361 1259 C 1421.333 1247.725, 1423.376 1234.675, 1423.902 1230 C 1425.046 1219.815, 1424.326 1158.624, 1422.896 1144.500 C 1420.979 1125.559, 1416.926 1115.121, 1410.691 1113.063 C 1406.857 1111.798, 1400.609 1111.197, 1397 1111.748 M 957.450 1286.898 C 956.928 1287.391, 951.100 1290.125, 944.500 1292.972 C 927.933 1300.118, 919.496 1304.875, 897.500 1319.473 C 887.050 1326.408, 877.506 1332.333, 876.291 1332.639 C 874.728 1333.033, 870.483 1331.150, 861.791 1326.207 C 843.251 1315.664, 831.518 1310.990, 815 1307.567 C 797.557 1303.951, 774.654 1303.444, 765.727 1306.475 C 763.183 1307.338, 759.167 1308.284, 756.801 1308.577 C 743.439 1310.233, 726.388 1314.993, 722.313 1318.205 C 721.660 1318.719, 720.824 1321.561, 720.454 1324.520 C 719.580 1331.521, 721.516 1337.727, 729.683 1354.104 C 736.967 1368.708, 738.933 1375.554, 745.878 1410.500 C 753.407 1448.385, 754.444 1455.231, 757.390 1486.500 C 762.773 1543.613, 763.840 1562.263, 763.602 1595 C 763.414 1620.810, 763.229 1623.330, 760.601 1636 C 758.379 1646.716, 758.023 1650.067, 758.876 1652.250 C 761.180 1658.147, 764.026 1654.952, 770.232 1639.500 C 776.597 1623.654, 780.257 1610.811, 783.058 1594.500 C 783.624 1591.200, 784.306 1587.375, 784.573 1586 C 788.321 1566.693, 788.266 1520.633, 784.447 1480 C 782.114 1455.175, 780.143 1442.053, 774.909 1416.500 C 765.532 1370.719, 762.546 1360.338, 753.134 1340.814 L 747.500 1329.129 750.375 1328.564 C 754.914 1327.673, 761.730 1327.901, 768.636 1329.173 C 774.768 1330.303, 775.097 1330.258, 777.557 1327.946 C 779.993 1325.658, 780.690 1325.554, 792.542 1325.705 C 815.710 1325.999, 831.955 1331.039, 859.500 1346.476 C 868.401 1351.464, 871.265 1353.132, 881.168 1359.098 C 899.195 1369.957, 922.249 1385.489, 937.835 1397.274 C 947.165 1404.328, 950.493 1406.890, 961.926 1415.823 C 974.566 1425.699, 997.249 1448.586, 1002.956 1457.223 C 1011.982 1470.882, 1021 1493.644, 1021 1502.766 C 1021 1507.730, 1023.477 1509.837, 1026.612 1507.538 C 1032.493 1503.225, 1023.711 1468.357, 1012.245 1450.500 C 1005.524 1440.032, 1002.532 1435.956, 996.884 1429.582 C 994.250 1426.609, 993.076 1424.187, 992.560 1420.666 C 991.896 1416.130, 985.274 1389.485, 975.993 1354 C 970.180 1331.774, 965.979 1303.052, 966.835 1291.389 C 967.123 1287.479, 966.981 1287.246, 963.944 1286.639 C 959.687 1285.787, 958.578 1285.832, 957.450 1286.898 M 1008.732 1294.250 C 1008.430 1297.138, 1006.321 1307.825, 1004.045 1318 C 996.452 1351.942, 995.387 1354.027, 984.500 1356.284 C 982.905 1356.615, 983.307 1357.056, 986.483 1358.460 C 992.431 1361.091, 994.837 1359.824, 998.755 1352 C 1003.801 1341.923, 1013.133 1294.986, 1010.915 1290.841 C 1010.373 1289.828, 1009.783 1289, 1009.605 1289 C 1009.426 1289, 1009.033 1291.362, 1008.732 1294.250 M 947.231 1304.461 C 928.448 1314.258, 925.999 1315.790, 904.198 1331.375 L 888.896 1342.315 893.698 1345.365 C 896.339 1347.043, 901.174 1350.158, 904.441 1352.288 C 907.709 1354.418, 912.434 1357.260, 914.941 1358.604 C 917.449 1359.948, 920.850 1361.868, 922.500 1362.869 C 938.189 1372.394, 955.789 1381.568, 962.080 1383.501 C 967.333 1385.115, 968.379 1388.433, 965.433 1394.130 C 963.877 1397.139, 963.892 1397.182, 967.683 1400.290 C 969.782 1402.011, 975.743 1407.594, 980.929 1412.697 C 986.116 1417.799, 990.513 1421.820, 990.702 1421.632 C 990.890 1421.443, 988.375 1413.686, 985.112 1404.394 C 970.844 1363.759, 964.062 1335.217, 962.386 1308.750 C 961.956 1301.962, 961.299 1298.011, 960.603 1298.031 C 959.996 1298.048, 953.979 1300.941, 947.231 1304.461 M 1109.664 1382.714 C 1109.321 1385.347, 1108.345 1392.225, 1107.496 1398 C 1106.647 1403.775, 1104.592 1420.875, 1102.931 1436 C 1098.051 1480.430, 1092.962 1509.134, 1086.599 1528.132 C 1084.081 1535.648, 1083.428 1538.811, 1084.202 1539.743 C 1089.718 1546.390, 1103.239 1500.913, 1110.586 1451 C 1113.451 1431.533, 1114.609 1404.875, 1113.298 1388.581 C 1112.425 1377.725, 1110.680 1374.910, 1109.664 1382.714 M 1385.704 1505.149 C 1381.735 1508.108, 1376.186 1519.755, 1373.414 1530.940 C 1370.574 1542.404, 1369.342 1552, 1370.712 1552 C 1371.245 1552, 1373.840 1549.961, 1376.478 1547.470 C 1379.115 1544.978, 1381.457 1543.123, 1381.681 1543.347 C 1382.031 1543.697, 1380.022 1571.256, 1378.535 1586.500 C 1374.036 1632.633, 1370.250 1655.811, 1361.385 1691.500 C 1356.365 1711.707, 1351.923 1743.573, 1350.023 1773 C 1346.908 1821.231, 1341.631 1863.266, 1335.960 1885 C 1333.816 1893.220, 1320.079 1934.139, 1320.030 1932.453 C 1320.014 1931.877, 1320.855 1927.377, 1321.901 1922.453 C 1325.030 1907.713, 1325.296 1904.491, 1323.505 1903.004 C 1320.971 1900.901, 1313.026 1900.622, 1308 1902.460 C 1278.214 1913.352, 1258.166 1916.308, 1252.502 1910.644 C 1249.742 1907.884, 1249 1903.934, 1249 1891.992 C 1249 1880.851, 1248.862 1880.017, 1246.777 1878.557 C 1243.832 1876.493, 1240.683 1876.587, 1238.683 1878.798 C 1236.999 1880.659, 1228.730 1898.970, 1220.529 1919 C 1207.831 1950.011, 1194.123 1973.495, 1170.038 2005.500 C 1154.410 2026.267, 1144.679 2040.537, 1145.160 2041.981 C 1145.376 2042.627, 1151.997 2036.731, 1159.874 2028.880 C 1174.281 2014.521, 1188.017 1997.369, 1199.017 1980 C 1203.872 1972.333, 1220.701 1939.964, 1223.712 1932.500 C 1224.965 1929.394, 1229.450 1918.023, 1234.558 1905.001 L 1237.500 1897.503 1238.071 1904.501 C 1238.431 1908.916, 1239.498 1913.161, 1240.960 1916 C 1245.793 1925.383, 1250.662 1927.555, 1264.926 1926.693 C 1276.114 1926.016, 1287.039 1923.141, 1303.066 1916.654 C 1309.391 1914.094, 1314.822 1912, 1315.134 1912 C 1315.771 1912, 1315.223 1915.566, 1311.599 1935 C 1307.155 1958.836, 1306.215 1975.523, 1309.060 1980.085 C 1310.798 1982.870, 1313.469 1979.402, 1316.516 1970.405 C 1318.175 1965.507, 1320.240 1960.150, 1321.104 1958.500 C 1325.431 1950.234, 1329.283 1943.401, 1330.094 1942.550 C 1331.483 1941.094, 1331.171 1939, 1329.565 1939 C 1328.454 1939, 1328.877 1936.914, 1331.441 1929.750 C 1334.789 1920.399, 1338.783 1910.410, 1341.739 1904 C 1345.971 1894.821, 1352.208 1871.664, 1355.546 1852.735 C 1355.814 1851.214, 1356.720 1846.714, 1357.560 1842.735 C 1360.098 1830.698, 1364.230 1798.968, 1366.509 1774 C 1366.836 1770.425, 1367.732 1762.775, 1368.501 1757 C 1369.269 1751.225, 1370.177 1744.250, 1370.517 1741.500 C 1372.310 1727.009, 1375.657 1709.630, 1379.665 1694 C 1382.134 1684.375, 1384.361 1675.375, 1384.616 1674 C 1384.870 1672.625, 1385.305 1670.748, 1385.581 1669.830 C 1386.130 1668.008, 1386.731 1665.152, 1387.546 1660.500 C 1387.835 1658.850, 1388.264 1656.825, 1388.500 1656 C 1388.929 1654.498, 1389.402 1651.871, 1390.550 1644.623 C 1390.887 1642.491, 1391.344 1639.791, 1391.565 1638.623 C 1391.786 1637.455, 1392.178 1635.375, 1392.436 1634 C 1392.695 1632.625, 1393.180 1629.250, 1393.514 1626.500 C 1393.848 1623.750, 1394.748 1617, 1395.514 1611.500 C 1396.280 1606, 1397.178 1598.350, 1397.510 1594.500 C 1397.842 1590.650, 1398.315 1585.700, 1398.561 1583.500 C 1399.690 1573.394, 1400.018 1569.479, 1400.987 1554.500 C 1401.556 1545.700, 1402.224 1535.800, 1402.471 1532.500 C 1404.486 1505.583, 1404.517 1505.793, 1398.238 1504.049 C 1392.636 1502.493, 1388.815 1502.829, 1385.704 1505.149 M 1177 1518.572 C 1177 1518.961, 1177.711 1519.800, 1178.581 1520.436 C 1179.952 1521.438, 1180.011 1522.448, 1179.024 1528.046 C 1178.398 1531.596, 1176.391 1539.450, 1174.563 1545.500 C 1172.735 1551.550, 1170.012 1560.547, 1168.512 1565.493 C 1163.959 1580.503, 1157.160 1608.190, 1154.579 1622.233 C 1151.022 1641.589, 1148.522 1662.999, 1143.981 1713 C 1139.479 1762.568, 1137.873 1776.803, 1134.948 1793.044 C 1132.399 1807.204, 1126.296 1831.106, 1121.299 1846.500 C 1117.845 1857.143, 1117.129 1858.540, 1114.965 1858.851 C 1108.712 1859.749, 1102.784 1868.455, 1101.494 1878.636 C 1100.981 1882.690, 1101.269 1884.654, 1102.862 1887.951 L 1104.881 1892.130 1099.341 1905.315 C 1087.439 1933.637, 1063.177 1983.372, 1052.793 2000.732 C 1049.935 2005.508, 1051.658 2007.062, 1055.198 2002.901 C 1059.815 1997.473, 1077.376 1975.505, 1078.772 1973.409 C 1093.408 1951.446, 1102.761 1933.129, 1114.645 1903.159 C 1117.118 1896.921, 1120.615 1889.496, 1122.415 1886.659 C 1124.215 1883.821, 1126.513 1879.250, 1127.521 1876.500 C 1128.530 1873.750, 1129.464 1871.348, 1129.598 1871.162 C 1129.732 1870.977, 1133.815 1872.381, 1138.671 1874.283 C 1153.062 1879.920, 1182.548 1887.775, 1199.481 1890.482 C 1204.970 1891.360, 1210.483 1892.334, 1211.731 1892.647 C 1213.350 1893.054, 1214 1892.778, 1214 1891.686 C 1214 1889.898, 1210.723 1888.756, 1199 1886.461 C 1190.878 1884.871, 1170.002 1878.781, 1154 1873.333 C 1143.964 1869.917, 1132.270 1864.304, 1131.199 1862.391 C 1130.642 1861.395, 1131.138 1858.460, 1132.589 1854.171 C 1139.172 1834.714, 1146.843 1801.897, 1148.525 1786 C 1148.903 1782.425, 1149.363 1778.717, 1149.547 1777.759 C 1150.120 1774.779, 1152.860 1740.816, 1154.973 1710.500 C 1157.921 1668.218, 1159.888 1644.946, 1161.565 1632.500 C 1163.472 1618.356, 1169.094 1590.367, 1173.618 1572.500 C 1175.568 1564.800, 1178.476 1553.325, 1180.082 1547 C 1183.704 1532.731, 1184.713 1523.157, 1182.840 1520.851 C 1181.419 1519.102, 1177 1517.378, 1177 1518.572 M 584.250 1654.031 C 583.013 1654.529, 582 1655.190, 582 1655.500 C 582 1657.209, 585.241 1663.315, 588.922 1668.539 C 611.406 1700.452, 618.989 1711.643, 628.500 1726.957 C 633.052 1734.287, 642.199 1748.630, 650.528 1761.500 C 652.308 1764.250, 657.918 1773.475, 662.994 1782 C 673.367 1799.419, 672.781 1798.553, 673.626 1797.707 C 675.956 1795.378, 648.753 1738.522, 636.832 1720.805 C 634.724 1717.673, 633 1714.856, 633 1714.546 C 633 1713.576, 614.642 1686.912, 605.212 1674.187 C 602.231 1670.165, 599.952 1666.722, 600.146 1666.537 C 600.341 1666.352, 604.685 1665.915, 609.799 1665.567 C 617.429 1665.048, 623.803 1665.580, 645.299 1668.528 C 704.882 1676.700, 711.821 1677.863, 758.500 1687.491 C 773.350 1690.554, 796.750 1695.095, 810.500 1697.582 C 847.860 1704.340, 872.570 1709.595, 880.887 1712.550 C 881.804 1712.875, 880.695 1714.272, 877.619 1716.669 C 871.577 1721.376, 870.122 1726.788, 874.205 1729.359 C 875.534 1730.196, 876.417 1729.968, 878.205 1728.327 C 881.034 1725.730, 888.694 1721.911, 896 1719.456 C 902.605 1717.235, 903.261 1716.667, 905.286 1711.402 C 907.638 1705.287, 905.414 1702.185, 895.846 1698.231 C 880.839 1692.029, 843.569 1683.114, 809 1677.456 C 807.075 1677.141, 801 1676.027, 795.500 1674.980 C 790 1673.934, 784.204 1672.854, 782.621 1672.581 C 781.037 1672.309, 777.437 1671.615, 774.621 1671.041 C 727.834 1661.497, 707.018 1658.520, 659.500 1654.577 C 638.704 1652.851, 620.038 1652.810, 607.193 1654.462 C 594.995 1656.031, 593.607 1656.041, 590.542 1654.587 C 588.702 1653.714, 587.041 1653.029, 586.849 1653.063 C 586.657 1653.098, 585.487 1653.534, 584.250 1654.031 M 862.250 1732.647 C 859.228 1734.792, 859.404 1736.810, 863.350 1745.296 C 868.454 1756.270, 871.211 1769.709, 874.983 1802 C 876.108 1811.625, 878.570 1829.175, 880.455 1841 C 884.271 1864.940, 884.713 1869.665, 885.553 1895.500 C 885.875 1905.400, 886.478 1913.848, 886.893 1914.274 C 887.308 1914.699, 888.448 1914.163, 889.426 1913.082 C 893.334 1908.764, 894.023 1862.678, 890.608 1834 C 889.789 1827.125, 888.630 1812.950, 888.031 1802.500 C 886.205 1770.640, 882.560 1747.470, 877.765 1737.237 C 875.350 1732.084, 875.303 1732.052, 869.297 1731.495 C 865.928 1731.182, 863.830 1731.525, 862.250 1732.647 M 682.388 1821.034 C 672.851 1822.923, 670 1824.048, 670 1825.922 C 670 1828.063, 674.785 1829.414, 676.714 1827.819 C 678.685 1826.189, 701.019 1825.574, 709.702 1826.910 C 736.206 1830.988, 775.523 1847.515, 796.836 1863.536 C 804.061 1868.967, 805.367 1870.998, 805.153 1876.466 C 804.633 1889.736, 798.136 1894.081, 771.064 1899.264 C 755.328 1902.276, 719.184 1902.505, 706 1899.676 C 681.936 1894.513, 644.052 1878.201, 637 1869.968 C 635.081 1867.727, 630.937 1866, 627.477 1866 C 620.706 1866, 619.426 1868.919, 623.104 1875.975 C 625.426 1880.429, 627.830 1882.398, 635.940 1886.485 C 645.202 1891.152, 663.932 1911.551, 677.853 1932.132 C 686.364 1944.716, 697 1969.337, 697 1976.458 C 697 1980.683, 694.379 1980.633, 685.522 1976.241 C 665.886 1966.502, 644.509 1946.268, 626.070 1919.967 C 616.847 1906.811, 594.838 1882, 592.391 1882 C 591.626 1882, 591 1882.349, 591 1882.776 C 591 1883.203, 594.400 1890.495, 598.555 1898.980 C 620.980 1944.773, 659.925 1984.725, 689.743 1992.528 C 696.799 1994.375, 700.207 1993.732, 703.387 1989.952 C 710.816 1981.123, 709.016 1967.268, 697.353 1943.500 C 692.687 1933.990, 690.741 1930.584, 685.357 1922.500 C 679.280 1913.376, 675.531 1908.199, 672.742 1905.082 C 669.860 1901.861, 669.908 1901.345, 672.940 1902.968 C 675.616 1904.400, 691.468 1908.878, 699.500 1910.471 C 710.012 1912.556, 718.114 1913.247, 731.446 1913.194 C 746.995 1913.132, 754.583 1912.382, 770.413 1909.343 C 786.249 1906.303, 797.216 1902.848, 802.500 1899.235 C 809.995 1894.110, 814.862 1879.348, 812.009 1870.394 C 807.819 1857.242, 773.294 1837.798, 731.500 1825.052 C 729.850 1824.549, 724.120 1823.207, 718.767 1822.069 C 708.578 1819.903, 690.668 1819.393, 682.388 1821.034 M 1316.719 1948.643 C 1314.542 1960.225, 1314.552 1960.326, 1317.392 1955.360 C 1319.436 1951.786, 1319.669 1950.420, 1319.098 1945.360 L 1318.437 1939.500 1316.719 1948.643" stroke="none" fill="#0c1c04" fill-rule="evenodd"/></svg>